<svg width="234" height="41" viewBox="0 0 234 41" fill="none" xmlns="http://www.w3.org/2000/svg">
<path d="M58.6867 19.1375V29.9926H54.2422V11.0078H57.7628L66.6753 22.1845V11.0078H71.1198V29.9926H67.4883L58.6833 19.1375H58.6867Z" fill="white"/>
<path d="M79.6544 11.0078H84.4516L91.0629 29.9926H86.5109L85.2075 25.7421H78.875L77.5715 29.9926H73.0195L79.6577 11.0078H79.6544ZM84.2769 22.7183L82.0362 15.4175L79.7955 22.7183H84.2735H84.2769Z" fill="white"/>
<path d="M97.6999 11.0342H101.792L103.797 17.105L105.803 11.0342H109.921L106.643 19.8569L108.594 24.9098L113.419 11.0044H118.27L110.765 29.9892H106.918L103.804 22.5557L100.717 29.9892H96.8433L89.3652 11.0044H94.1893L99.0403 24.9098L100.938 19.8569L97.7134 11.0342H97.6999Z" fill="white"/>
<path d="M123.195 11.0078H127.989L134.6 29.9926H130.048L128.745 25.7421H122.412L121.109 29.9926H116.557L123.195 11.0078ZM127.817 22.7183L125.577 15.4175L123.336 22.7183H127.814H127.817Z" fill="white"/>
<path d="M152.401 25.1254C152.401 26.2129 152.109 27.118 151.521 27.8408C150.933 28.5636 150.144 29.1007 149.15 29.4588C148.155 29.8169 147.063 29.9926 145.871 29.9926H136.498V11.0078H147.201C148.105 11.0078 148.884 11.2432 149.546 11.7173C150.204 12.1915 150.712 12.8015 151.064 13.5475C151.417 14.2935 151.592 15.0727 151.592 15.875C151.592 16.7669 151.357 17.619 150.886 18.428C150.416 19.2403 149.731 19.8504 148.827 20.2582C149.929 20.5798 150.799 21.1501 151.441 21.969C152.082 22.7879 152.401 23.8423 152.401 25.1254ZM140.943 14.7511V18.6833H145.303C145.629 18.6833 145.931 18.6137 146.21 18.4678C146.489 18.3252 146.721 18.1064 146.902 17.8113C147.084 17.5162 147.174 17.1482 147.174 16.7006C147.174 16.253 147.097 15.9148 146.946 15.6297C146.791 15.3445 146.59 15.1257 146.334 14.9732C146.082 14.8207 145.794 14.7444 145.468 14.7444H140.943V14.7511ZM147.88 24.2435C147.88 23.8323 147.799 23.4709 147.634 23.1593C147.473 22.8476 147.258 22.5989 147 22.41C146.738 22.2243 146.425 22.1281 146.066 22.1281H140.946V26.2726H145.878C146.257 26.2726 146.596 26.183 146.892 26.004C147.191 25.825 147.43 25.5863 147.611 25.2812C147.792 24.9795 147.883 24.6314 147.883 24.2368L147.88 24.2435Z" fill="white"/>
<path d="M177.897 11.0076V29.9924H173.452V22.2108H165.786V29.9924H161.342V11.0076H165.786V18.3614H173.452V11.0076H177.897Z" fill="#EE2B47"/>
<path d="M190.01 30.1252C188.565 30.1252 187.259 29.8533 186.096 29.3096C184.931 28.7658 183.929 28.0364 183.09 27.118C182.25 26.1996 181.605 25.1651 181.151 24.0146C180.698 22.8641 180.473 21.6739 180.473 20.4438C180.473 19.2137 180.711 17.9737 181.192 16.8332C181.669 15.6926 182.337 14.6714 183.197 13.7729C184.054 12.8744 185.072 12.1649 186.244 11.6477C187.417 11.1304 188.7 10.8718 190.091 10.8718C191.481 10.8718 192.815 11.1437 193.977 11.6874C195.143 12.2312 196.144 12.9672 196.984 13.8923C197.824 14.8206 198.469 15.8584 198.923 17.0089C199.373 18.1594 199.601 19.3298 199.601 20.5267C199.601 21.7932 199.366 22.9968 198.896 24.1373C198.425 25.2779 197.757 26.299 196.89 27.1976C196.023 28.0994 195.009 28.8122 193.843 29.3361C192.677 29.8633 191.401 30.1252 190.01 30.1252ZM184.998 20.5002C184.998 21.2329 185.105 21.9391 185.324 22.6254C185.542 23.3117 185.861 23.9218 186.284 24.4556C186.708 24.9894 187.238 25.4171 187.87 25.7387C188.502 26.0603 189.224 26.2195 190.037 26.2195C190.85 26.2195 191.626 26.0537 192.257 25.7255C192.889 25.3972 193.413 24.9529 193.83 24.4026C194.246 23.8489 194.555 23.2322 194.764 22.5459C194.972 21.8595 195.076 21.16 195.076 20.4471C195.076 19.7343 194.968 19.0115 194.75 18.3351C194.532 17.6587 194.209 17.0487 193.776 16.5049C193.343 15.9612 192.808 15.5368 192.177 15.2351C191.545 14.9334 190.833 14.7809 190.037 14.7809C189.187 14.7809 188.451 14.94 187.83 15.2616C187.208 15.5832 186.684 16.0142 186.258 16.558C185.834 17.1017 185.515 17.7184 185.31 18.4014C185.102 19.0877 184.998 19.7873 184.998 20.5002Z" fill="#EE2B47"/>
<path d="M213.602 16.5977C213.548 16.5081 213.357 16.3689 213.034 16.1832C212.708 15.9976 212.302 15.7953 211.815 15.5831C211.328 15.3676 210.793 15.1819 210.216 15.0228C209.638 14.8636 209.06 14.7807 208.482 14.7807C207.723 14.7807 207.135 14.9101 206.722 15.1654C206.305 15.4206 206.097 15.8152 206.097 16.3457C206.097 16.7701 206.255 17.1083 206.571 17.3536C206.886 17.6023 207.343 17.8178 207.938 18.0035C208.532 18.1891 209.265 18.4046 210.132 18.6533C211.361 18.9716 212.426 19.3562 213.33 19.8071C214.233 20.258 214.922 20.8382 215.402 21.5478C215.88 22.2573 216.121 23.1956 216.121 24.3627C216.121 25.4236 215.923 26.3255 215.527 27.0582C215.13 27.7943 214.593 28.3844 213.914 28.8387C213.236 29.2896 212.466 29.6178 211.596 29.8201C210.726 30.0223 209.836 30.1251 208.915 30.1251C207.995 30.1251 207.014 30.0322 206.03 29.8433C205.045 29.6576 204.101 29.389 203.198 29.0409C202.294 28.6928 201.464 28.2717 200.705 27.771L202.657 23.9482C202.727 24.0377 202.963 24.2035 203.362 24.4422C203.759 24.6843 204.253 24.9329 204.841 25.1916C205.428 25.4502 206.083 25.6789 206.806 25.8746C207.528 26.0702 208.26 26.1696 208.999 26.1696C209.792 26.1696 210.387 26.047 210.773 25.8016C211.163 25.5563 211.354 25.2181 211.354 24.7804C211.354 24.303 211.153 23.9283 210.746 23.6631C210.34 23.3978 209.789 23.1591 209.094 22.9469C208.398 22.7347 207.599 22.496 206.695 22.2275C205.522 21.8727 204.548 21.4748 203.782 21.0305C203.013 20.5863 202.445 20.0458 202.076 19.4092C201.706 18.7693 201.521 17.9736 201.521 17.0154C201.521 15.6859 201.841 14.5652 202.482 13.6501C203.124 12.7384 203.987 12.0454 205.069 11.5746C206.154 11.1038 207.337 10.8684 208.62 10.8684C209.524 10.8684 210.394 10.9745 211.233 11.19C212.073 11.4055 212.859 11.6708 213.592 11.9924C214.324 12.314 214.979 12.6356 215.557 12.9539L213.605 16.591L213.602 16.5977Z" fill="#EE2B47"/>
<path d="M233.385 14.8569H227.532V29.9924H223.088V14.8569H217.209V11.0076H233.385V14.8569Z" fill="#EE2B47"/>
<path d="M30.507 7.77826H33.6581V17.8244V23.2685V33.2217H25.7803V23.2685H15.7559V33.2217V41H41.5393V0H30.507V7.77826Z" fill="#EE2B47"/>
<path d="M7.88116 33.2217V23.2685V17.8244V7.77826H15.759V17.8244H25.7834V7.77826V0H0V41H11.0323V33.2217H7.88116Z" fill="white"/>
</svg>
