<svg width="220" height="40" viewBox="0 0 220 40" fill="none" xmlns="http://www.w3.org/2000/svg">
<path d="M71.0727 35.088V35.0822H70.4227C67.3449 35.0822 64.6467 34.4747 62.3243 33.2901C59.9996 32.0764 58.2158 30.368 56.9466 28.1576C55.6851 25.9497 55.0367 23.3367 55.0367 20.2968C55.0367 17.2552 55.6796 14.637 56.9459 12.4373L56.9459 12.4373L56.9484 12.4329C58.2111 10.1994 59.9996 8.49278 62.3222 7.30461L62.3222 7.30463L62.3269 7.30219C64.6551 6.08721 67.346 5.46763 70.4227 5.46763C72.5252 5.46763 74.3609 5.68849 75.9316 6.12012L75.9316 6.12023L75.9434 6.12325C77.4296 6.50176 78.7918 7.08535 80.0338 7.87772V12.3973C78.9861 11.7157 77.835 11.2003 76.581 10.8448C74.9254 10.3418 73.0533 10.099 70.967 10.099C68.9793 10.099 67.1674 10.5129 65.5392 11.3598C63.9302 12.1783 62.6585 13.3633 61.7208 14.9102C60.7746 16.465 60.3125 18.2683 60.3125 20.2968C60.3125 22.3122 60.725 24.1552 61.5795 25.7364L61.5829 25.7428L61.5865 25.749C62.4666 27.2942 63.7004 28.5006 65.2772 29.3528C66.8566 30.2063 68.6615 30.6197 70.6792 30.6197C72.5083 30.6197 74.1338 30.293 75.5385 29.6244L75.9092 29.448V29.0375V23.3126V22.6626H75.2592H71.1165V19.2137H80.8409V32.5128C78.3492 34.1283 75.1058 35.0037 71.0727 35.088Z" fill="#80818B" stroke="white" stroke-width="1.3"/>
<path d="M88.7432 23.0999V34.4503H83.6363V15.3909H88.5305V17.669V19.4714L89.6809 18.0839C90.4103 17.2041 91.4466 16.5132 92.8273 16.0374L92.8273 16.0375L92.8388 16.0333C94.0563 15.5877 95.4329 15.3328 96.9709 15.2773V18.8568C95.2136 18.9158 93.6209 19.2182 92.2064 19.7804L92.2064 19.7804L92.2029 19.7818C90.6097 20.4259 89.4486 21.4359 88.8036 22.8263L88.7432 22.9564V23.0999Z" fill="#80818B" stroke="white" stroke-width="1.3"/>
<path d="M110.578 35.0872V35.0821H109.928C106.125 35.0821 103.225 34.175 101.143 32.4381C99.08 30.6863 98.0268 28.2412 98.0268 25.0018C98.0268 21.7405 98.9702 19.2941 100.797 17.4954C102.649 15.6962 105.318 14.7525 108.908 14.7525C111.263 14.7525 113.217 15.1885 114.796 16.0334C116.386 16.8842 117.58 18.0535 118.392 19.544L118.394 19.5478C119.211 21.0241 119.626 22.7094 119.626 24.6201V26.5604H103.483H102.711L102.843 27.3213C103.104 28.83 103.956 29.9715 105.339 30.7117C106.69 31.4344 108.524 31.7646 110.779 31.7646C112.118 31.7646 113.498 31.6488 114.913 31.4183C115.953 31.2488 116.907 31.0293 117.762 30.7603V33.9042C116.895 34.2306 115.805 34.5041 114.49 34.7216C113.184 34.9366 111.882 35.0572 110.578 35.0872ZM114.214 23.6997H114.904L114.863 23.0108C114.772 21.4967 114.189 20.2709 113.095 19.4025C112.011 18.5169 110.56 18.1138 108.827 18.1138C107.087 18.1138 105.68 18.5203 104.598 19.4059C103.51 20.2966 102.933 21.517 102.835 23.0071L102.789 23.6997H103.483H114.214Z" fill="#80818B" stroke="white" stroke-width="1.3"/>
<path d="M134.239 35.0821H133.403C129.6 35.0821 126.7 34.175 124.618 32.4381C122.555 30.6857 121.496 28.2402 121.496 25.0018C121.496 21.7403 122.439 19.2943 124.272 17.4957C126.124 15.6963 128.793 14.7525 132.383 14.7525C134.739 14.7525 136.692 15.1885 138.271 16.0334C139.861 16.8842 141.055 18.0535 141.867 19.544L141.869 19.5478C142.686 21.0241 143.102 22.7094 143.102 24.6201V26.5604H126.952H126.18L126.312 27.3213C126.573 28.83 127.425 29.9715 128.808 30.7117C130.159 31.4344 131.993 31.7646 134.248 31.7646C135.587 31.7646 136.967 31.6488 138.382 31.4183C139.423 31.2488 140.376 31.0293 141.231 30.7603V33.9043C140.365 34.2307 139.279 34.5042 137.959 34.7216C136.717 34.9261 135.479 35.0452 134.239 35.0821ZM137.689 23.6997H138.382L138.338 23.0078C138.24 21.4983 137.666 20.2722 136.57 19.4025C135.486 18.5169 134.035 18.1138 132.302 18.1138C130.562 18.1138 129.155 18.5203 128.074 19.4059C126.987 20.2953 126.401 21.5154 126.31 23.0101L126.268 23.6997H126.959H137.689Z" fill="#80818B" stroke="white" stroke-width="1.3"/>
<path d="M150.929 22.205V34.4502H145.822V15.3907H150.716V17.2434V18.9483L151.851 17.6762C152.718 16.7048 153.737 15.9879 154.919 15.5128L154.919 15.5128L154.924 15.5103C156.147 15.005 157.42 14.7525 158.749 14.7525C161.408 14.7525 163.268 15.4704 164.462 16.7856L164.462 16.7857L164.47 16.794C165.713 18.1162 166.371 19.9382 166.371 22.3302V34.4439H161.264V23.0497C161.264 21.6478 160.941 20.475 160.18 19.652C159.41 18.8194 158.297 18.4579 156.966 18.4579C155.778 18.4579 154.668 18.7558 153.639 19.348C152.601 19.9139 151.731 20.7578 151.031 21.8554L150.929 22.0153V22.205Z" fill="#80818B" stroke="white" stroke-width="1.3"/>
<path d="M170.61 6.22011L170.616 6.21484L170.621 6.20945C171.172 5.65899 171.843 5.37998 172.664 5.37998C173.488 5.37998 174.157 5.65449 174.705 6.20733L174.712 6.21381L174.718 6.22011C175.268 6.7445 175.537 7.37997 175.537 8.16493C175.537 8.95907 175.262 9.6352 174.718 10.1536L174.718 10.1536L174.716 10.1556C174.169 10.6821 173.496 10.9499 172.664 10.9499C171.835 10.9499 171.166 10.6836 170.611 10.1546C170.069 9.6317 169.792 8.98381 169.792 8.16493C169.792 7.35202 170.058 6.74676 170.61 6.22011ZM170.092 15.3908H175.243V34.4502H170.092V15.3908Z" fill="#80818B" stroke="white" stroke-width="1.3"/>
<path d="M193.454 33.5523C192.018 34.5304 189.886 35.0697 186.976 35.0879L186.964 35.0821H186.811C185.332 35.0821 183.734 34.9184 182.016 34.5871L182.016 34.587L182.009 34.5857C180.511 34.3144 179.34 33.9437 178.47 33.4874V29.952C179.436 30.425 180.522 30.8233 181.725 31.142C183.352 31.5791 184.879 31.8022 186.304 31.8022C187.478 31.8022 188.422 31.7033 189.071 31.4696L189.071 31.4696L189.077 31.4673C189.432 31.3351 189.752 31.129 189.98 30.8192C190.21 30.5054 190.308 30.1386 190.308 29.7569C190.308 29.1517 190.076 28.631 189.621 28.2462C189.213 27.8823 188.639 27.6066 187.961 27.4005C187.317 27.1674 186.253 26.8389 184.796 26.4174C183.097 25.9186 181.786 25.4209 180.848 24.9417C179.97 24.4497 179.329 23.8599 178.891 23.1757C178.491 22.5128 178.27 21.6282 178.27 20.4656C178.27 18.5473 179.004 17.183 180.467 16.2679L180.467 16.2679L180.471 16.2656C182.026 15.2784 184.18 14.7525 186.992 14.7525C188.358 14.7525 189.771 14.9036 191.226 15.208L191.234 15.2096L191.242 15.211C192.53 15.4485 193.519 15.752 194.232 16.1046V19.4938C193.53 19.162 192.724 18.8834 191.822 18.6536C190.472 18.3033 189.147 18.1263 187.843 18.1263C186.656 18.1263 185.665 18.2403 184.915 18.4999L184.915 18.4999L184.906 18.5033C184.506 18.6488 184.154 18.8779 183.905 19.2167C183.654 19.5587 183.545 19.9611 183.545 20.3843C183.545 20.7831 183.66 21.1544 183.893 21.476C184.12 21.7898 184.438 22.0243 184.798 22.2007L184.807 22.2048L184.815 22.2086C185.493 22.517 186.696 22.8855 188.36 23.3046L188.361 23.3049L189.206 23.5161C190.958 23.9898 192.275 24.5083 193.189 25.0583L193.196 25.0623L193.203 25.066C194.105 25.5803 194.692 26.1864 195.016 26.8602L195.022 26.8729L195.028 26.8853C195.389 27.5587 195.59 28.446 195.59 29.588C195.59 31.2258 194.898 32.5339 193.454 33.5523Z" fill="#80818B" stroke="white" stroke-width="1.3"/>
<path d="M203.467 22.2053V34.4504H198.36V4.40415H203.467V17.0748V18.6729L204.582 17.5285C205.486 16.6009 206.499 15.9161 207.623 15.4703L207.623 15.4704L207.633 15.4659C208.764 14.9937 209.98 14.7528 211.287 14.7528C213.946 14.7528 215.806 15.4707 217 16.7859L217 16.786L217.008 16.7943C218.251 18.1165 218.909 19.9385 218.909 22.3304V34.4442H213.802V23.05C213.802 21.6481 213.479 20.4753 212.718 19.6523C211.947 18.8197 210.834 18.4582 209.504 18.4582C208.316 18.4582 207.205 18.7561 206.177 19.3482C205.139 19.9141 204.269 20.758 203.569 21.8557L203.467 22.0156V22.2053Z" fill="#80818B" stroke="white" stroke-width="1.3"/>
<path d="M0.713612 22.0093C0.644222 21.1367 0.631668 20.2692 0.675626 19.4204C10.7146 19.0355 19.3582 26.6351 20.1777 36.7482C20.2471 37.6206 20.2596 38.4879 20.2157 39.3366C10.1788 39.7123 1.53314 32.1134 0.713612 22.0093ZM27.643 38.9323L27.1709 38.9706C26.4578 39.0106 25.7518 39.0119 25.0548 38.973C24.6777 28.9352 32.277 20.2938 42.3825 19.4744L42.3852 19.4742C43.2574 19.3999 44.1203 19.3865 44.9707 19.4338C45.3478 29.4715 37.7485 38.1129 27.643 38.9323ZM31.8694 9.75427C31.8694 14.7823 27.7932 18.8585 22.7652 18.8585C17.7371 18.8585 13.6609 14.7823 13.6609 9.75427C13.6609 4.72619 17.7371 0.65 22.7652 0.65C27.7932 0.65 31.8694 4.72619 31.8694 9.75427Z" fill="#80818B" stroke="white" stroke-width="1.3"/>
</svg>
