<svg width="40" height="60" viewBox="0 0 40 60" fill="none" xmlns="http://www.w3.org/2000/svg">
<path d="M39.5 20.0278V20.0288C39.4988 24.7604 37.7647 29.3289 34.6253 32.8723L34.4995 33.0143V33.2039V53.7539C34.4995 55.0584 34.0554 56.3241 33.2393 57.3432L33.2393 57.3432C31.2556 59.8209 27.6373 60.2219 25.1574 58.2394L25.1572 58.2393L21.092 54.9921C21.092 54.9921 21.092 54.9921 21.0919 54.9921C20.4536 54.4822 19.5464 54.4822 18.9081 54.9921C18.908 54.9921 18.908 54.9921 18.908 54.9921L14.8428 58.2393L14.8424 58.2396C13.8239 59.0549 12.556 59.4989 11.2501 59.4989C8.07466 59.4989 5.50047 56.9271 5.50047 53.7539V33.2039V33.0149L5.37539 32.8731C2.22411 29.3017 0.489763 24.703 0.500045 19.9422C0.524039 9.18193 9.2725 0.476072 20.0428 0.500049C30.8133 0.524027 39.5239 9.26645 39.5 20.0278ZM20.0006 4.54006L20.0001 4.54006C11.4442 4.54853 4.50895 11.478 4.50047 20.0284V20.0289C4.50047 28.5833 11.4407 35.5178 20.0006 35.5178C28.5604 35.5178 35.5007 28.5833 35.5007 20.0289C35.5007 11.4746 28.5604 4.54006 20.0006 4.54006ZM12.3449 55.1133L16.4069 51.8669L16.4081 51.8659C18.5057 50.1781 21.4955 50.1782 23.5918 51.8658L23.5932 51.867L27.6541 55.1106C27.6549 55.1113 27.6557 55.1119 27.6566 55.1126C28.1821 55.5406 28.9082 55.6224 29.5156 55.3214L29.5154 55.3205C30.1201 55.0344 30.506 54.4228 30.4991 53.7512V37.3106V36.4402L29.7472 36.8787C23.7235 40.3923 16.2741 40.3923 10.2505 36.8787L9.49856 36.4402V37.3106L9.49855 53.7539L9.49856 53.756C9.5002 54.1526 9.63634 54.5363 9.88424 54.8447L9.88438 54.8449C10.4892 55.5966 11.5907 55.7187 12.3443 55.1138C12.3445 55.1136 12.3447 55.1135 12.3449 55.1133Z" fill="#EE2B47" stroke="white"/>
</svg>
