<svg width="60" height="60" viewBox="0 0 60 60" fill="none" xmlns="http://www.w3.org/2000/svg">
<path d="M49.8362 17.2932L50.1893 16.9398L49.8362 16.5864L47.121 13.8684C46.7458 13.4928 46.5349 12.9841 46.5349 12.4529C46.5349 11.3464 47.4309 10.4496 48.5345 10.4496H56.2488H56.2499C58.044 10.4496 59.4999 11.9062 59.4999 13.7033V21.4264C59.4967 21.9459 59.2914 22.4449 58.9279 22.8163C58.1548 23.6052 56.8897 23.6185 56.1015 22.8463C56.101 22.8458 56.1004 22.8452 56.0999 22.8447L53.3881 20.1301L53.0344 19.776L52.6806 20.1301L43.7201 29.0997C40.9464 31.7449 36.586 31.7451 33.8121 29.1002L33.3914 28.6767L33.3915 28.6766L33.3827 28.6681C32.2002 27.535 30.3354 27.535 29.1529 28.6681L29.1529 28.6681L29.1452 28.6758L16.3954 41.4385L16.395 41.4389C15.6114 42.2251 14.3404 42.2269 13.5553 41.4427C12.7696 40.6582 12.7678 39.3852 13.5512 38.5989C13.5513 38.5988 13.5513 38.5988 13.5514 38.5987L26.2966 25.8405C29.0691 23.1931 33.4318 23.1929 36.2045 25.84L36.6253 26.2636L36.6252 26.2637L36.6345 26.2726C37.8179 27.4039 39.681 27.4042 40.8635 26.2724L40.8636 26.2725L40.8715 26.2646L49.8362 17.2932Z" fill="#EE2B47" stroke="white"/>
<path d="M56.9993 55.4946V55.4958H57.4993C58.6031 55.4958 59.4988 56.3917 59.4988 57.4979C59.4988 58.6041 58.6031 59.5 57.4993 59.5H12.5007C5.87713 59.4921 0.508037 54.1184 0.5 47.4869V2.5021C0.5 1.39577 1.39472 0.5 2.49956 0.5C3.60471 0.5 4.50029 1.39607 4.50029 2.5021V47.4871C4.50029 51.9095 8.08103 55.4946 12.5001 55.4946H56.9993Z" fill="#EE2B47" stroke="white"/>
</svg>
