<svg width="60" height="60" viewBox="0 0 60 60" fill="none" xmlns="http://www.w3.org/2000/svg">
<path d="M32.9429 55.4994L33.9506 54.6223C34.5993 54.0576 35.3536 53.4898 36.0577 52.9597C36.097 52.9302 36.136 52.9007 36.1749 52.8714L36.1764 52.8699L36.2048 52.8487C37.6197 51.7866 39.0737 50.6934 40.1804 49.4115C41.2781 48.14 42.0038 46.7166 42.0038 44.9982C42.0038 41.1315 38.8708 37.9979 35.0052 37.9979C31.1397 37.9979 28.0067 41.1315 28.0067 44.9982C28.0067 46.1027 28.9019 46.9979 30.0058 46.9979C31.1098 46.9979 32.005 46.1027 32.005 44.9982C32.005 43.3417 33.3476 41.9985 35.0041 41.9985C36.6605 41.9985 38.0032 43.3417 38.0032 44.9982C38.0032 45.4489 37.8142 45.8801 37.5597 46.267C37.3022 46.6587 36.9483 47.0488 36.552 47.4271C35.7617 48.1817 34.7374 48.9494 33.8073 49.6466L33.8045 49.6487L32.9429 55.4994ZM32.9429 55.4994H34.2788M32.9429 55.4994H34.2788M34.2788 55.4994H40.0023M34.2788 55.4994H40.0023M40.0023 55.4994C41.1063 55.4994 42.0014 56.3946 42.0014 57.4991M40.0023 55.4994L42.0014 57.4991M42.0014 57.4991C42.0014 58.6036 41.1063 59.4988 40.0023 59.4988M42.0014 57.4991L40.0023 59.4988M40.0023 59.4988H30.0047M40.0023 59.4988H30.0047M30.0047 59.4988C28.9007 59.4988 28.0055 58.6036 28.0055 57.4991M30.0047 59.4988L28.0055 57.4991M28.0055 57.4991C28.0055 55.7807 28.7312 54.3573 29.8289 53.0859M28.0055 57.4991L29.8289 53.0859M29.8289 53.0859C30.9356 51.804 32.3894 50.7108 33.8043 49.6489L29.8289 53.0859ZM55.5006 39.9988C55.5006 38.9174 56.3587 38.0366 57.4307 38.0003H57.5009C58.6048 38.0003 59.5 38.8955 59.5 40V57.5003C59.5 58.6048 58.6048 59.5 57.5009 59.5C56.3969 59.5 55.5017 58.6048 55.5017 57.5003V52.4997V51.9997H55.0017H52.5026C48.6371 51.9997 45.5041 48.8661 45.5041 44.9994V39.9988C45.5041 38.8943 46.3993 37.9991 47.5032 37.9991C48.6071 37.9991 49.5023 38.8943 49.5023 39.9988V44.9994C49.5023 46.6559 50.845 47.9991 52.5014 47.9991H55.0006H55.5006V47.4991V39.9988ZM27.5067 27.9979H28.0067V27.4979V17.4979C28.0067 16.3934 28.9019 15.4982 30.0058 15.4982C31.1098 15.4982 32.005 16.3934 32.005 17.4979V29.9976C32.005 31.1021 31.1098 31.9973 30.0058 31.9973H20.0082C18.9042 31.9973 18.0091 31.1021 18.0091 29.9976C18.0091 28.8931 18.9042 27.9979 20.0082 27.9979H27.5067ZM54.5837 13.7087L55.5006 15.0926V13.4325V7.49675C55.5006 6.4154 56.3586 5.53465 57.4306 5.49822H57.5009C58.6048 5.49822 59.5 6.39344 59.5 7.49793V14.997C59.5 18.8638 56.367 21.9973 52.5014 21.9973H45.0029C43.899 21.9973 43.0038 21.1021 43.0038 19.9976C43.0038 18.8931 43.899 17.9979 45.0029 17.9979H51.5911H52.456L52.0244 17.2484C49.1156 12.1968 44.5635 8.29398 39.127 6.19132L38.9486 6.65279L39.127 6.19132C25.9942 1.11218 11.2313 7.64256 6.15225 20.7795L6.15224 20.7795C1.07447 33.915 7.60398 48.681 20.7376 53.7592C21.5068 54.0594 22.0128 54.8008 22.012 55.6267C22.0101 56.7313 21.1129 57.6256 20.009 57.6237H20.0082C19.7583 57.6237 19.5116 57.5778 19.2789 57.4878C13.6143 55.2775 8.771 51.3698 5.41153 46.2995C-3.58657 32.7173 0.126788 14.4116 13.7056 5.41266L13.7056 5.41264C27.2844 -3.58745 45.5857 0.126626 54.5837 13.7087Z" fill="#EE2B47" stroke="white"/>
</svg>
