<svg width="114" height="40" viewBox="0 0 114 40" fill="none" xmlns="http://www.w3.org/2000/svg">
<path opacity="0.7" d="M16.2118 20.5L28.8153 39.5H16.753L4.14514 20.5H16.2118ZM16.2164 19.5H4.14956L16.753 0.5H28.8199L16.2164 19.5Z" fill="#80818B" stroke="white"/>
<path d="M0.931675 0.5H12.9985L25.602 19.5H13.5352L0.931675 0.5Z" fill="#80818B" stroke="white"/>
<path d="M25.602 20.5L12.9985 39.5H0.931675L13.5352 20.5H25.602Z" fill="#80818B" stroke="white"/>
<mask id="path-4-inside-1_4_7041" fill="white">
<path d="M36.3159 19.8126C36.3159 18.0061 36.7205 16.3962 37.5341 14.9738C38.3616 13.5377 39.4832 12.4218 40.8899 11.6351C42.3149 10.8302 43.9101 10.4277 45.6753 10.4277C47.7394 10.4277 49.5414 10.9537 51.0951 12.0056C52.6443 13.0575 53.7292 14.5119 54.3452 16.3687H50.0884C49.6655 15.4906 49.0679 14.8366 48.291 14.3975C47.5325 13.9585 46.6499 13.739 45.6477 13.739C44.5721 13.739 43.6113 13.9951 42.7654 14.5027C41.938 14.9921 41.2852 15.6964 40.8071 16.6066C40.3474 17.5167 40.1222 18.5869 40.1222 19.8126C40.1222 21.0383 40.352 22.0902 40.8071 23.0186C41.2852 23.9288 41.9334 24.6377 42.7654 25.1499C43.6113 25.6393 44.5721 25.8862 45.6477 25.8862C46.6499 25.8862 47.5325 25.6667 48.291 25.2276C49.0679 24.7703 49.6655 24.1071 50.0884 23.229H54.3452C53.7292 25.1042 52.6443 26.5677 51.0951 27.6196C49.5644 28.6532 47.7577 29.17 45.6753 29.17C43.9147 29.17 42.3195 28.7767 40.8899 27.9855C39.4786 27.1805 38.3616 26.0646 37.5341 24.6468C36.725 23.229 36.3159 21.6146 36.3159 19.808V19.8126Z"/>
</mask>
<path d="M36.3159 19.8126C36.3159 18.0061 36.7205 16.3962 37.5341 14.9738C38.3616 13.5377 39.4832 12.4218 40.8899 11.6351C42.3149 10.8302 43.9101 10.4277 45.6753 10.4277C47.7394 10.4277 49.5414 10.9537 51.0951 12.0056C52.6443 13.0575 53.7292 14.5119 54.3452 16.3687H50.0884C49.6655 15.4906 49.0679 14.8366 48.291 14.3975C47.5325 13.9585 46.6499 13.739 45.6477 13.739C44.5721 13.739 43.6113 13.9951 42.7654 14.5027C41.938 14.9921 41.2852 15.6964 40.8071 16.6066C40.3474 17.5167 40.1222 18.5869 40.1222 19.8126C40.1222 21.0383 40.352 22.0902 40.8071 23.0186C41.2852 23.9288 41.9334 24.6377 42.7654 25.1499C43.6113 25.6393 44.5721 25.8862 45.6477 25.8862C46.6499 25.8862 47.5325 25.6667 48.291 25.2276C49.0679 24.7703 49.6655 24.1071 50.0884 23.229H54.3452C53.7292 25.1042 52.6443 26.5677 51.0951 27.6196C49.5644 28.6532 47.7577 29.17 45.6753 29.17C43.9147 29.17 42.3195 28.7767 40.8899 27.9855C39.4786 27.1805 38.3616 26.0646 37.5341 24.6468C36.725 23.229 36.3159 21.6146 36.3159 19.808V19.8126Z" fill="#80818B"/>
<path d="M37.5341 14.9738L37.0142 14.6743L37.0133 14.6759L37.5341 14.9738ZM40.8899 11.6351L41.1827 12.1588L41.185 12.1576L40.8899 11.6351ZM51.0951 12.0056L51.4322 11.5092L51.4315 11.5088L51.0951 12.0056ZM54.3452 16.3687V16.9687H55.1764L54.9147 16.1798L54.3452 16.3687ZM50.0884 16.3687L49.5478 16.6291L49.7114 16.9687H50.0884V16.3687ZM48.291 14.3975L47.9904 14.9169L47.9958 14.9199L48.291 14.3975ZM42.7654 14.5027L43.0709 15.0192L43.0742 15.0172L42.7654 14.5027ZM40.8071 16.6066L40.2759 16.3275L40.2716 16.3361L40.8071 16.6066ZM40.8071 23.0186L40.2684 23.2827L40.2721 23.2902L40.276 23.2977L40.8071 23.0186ZM42.7654 25.1499L42.4509 25.6608L42.4579 25.6651L42.465 25.6692L42.7654 25.1499ZM48.291 25.2276L48.5916 25.7469L48.5954 25.7447L48.291 25.2276ZM50.0884 23.229V22.629H49.7114L49.5478 22.9687L50.0884 23.229ZM54.3452 23.229L54.9152 23.4163L55.1738 22.629H54.3452V23.229ZM51.0951 27.6196L51.4309 28.1169L51.4322 28.116L51.0951 27.6196ZM40.8899 27.9855L40.5926 28.5067L40.5994 28.5104L40.8899 27.9855ZM37.5341 24.6468L37.013 24.9442L37.0159 24.9492L37.5341 24.6468ZM36.9159 19.8126C36.9159 18.0993 37.2985 16.5941 38.0549 15.2717L37.0133 14.6759C36.1424 16.1983 35.7159 17.9128 35.7159 19.8126H36.9159ZM38.054 15.2734C38.829 13.9283 39.8734 12.8911 41.1827 12.1588L40.597 11.1115C39.0931 11.9525 37.8941 13.1471 37.0142 14.6743L38.054 15.2734ZM41.185 12.1576C42.513 11.4074 44.0051 11.0277 45.6753 11.0277V9.82773C43.8151 9.82773 42.1169 10.253 40.5948 11.1127L41.185 12.1576ZM45.6753 11.0277C47.6315 11.0277 49.3138 11.5242 50.7588 12.5024L51.4315 11.5088C49.7689 10.3832 47.8472 9.82773 45.6753 9.82773V11.0277ZM50.7581 12.502C52.1933 13.4765 53.1994 14.8205 53.7757 16.5577L54.9147 16.1798C54.259 14.2033 53.0953 12.6385 51.4322 11.5092L50.7581 12.502ZM54.3452 15.7687H50.0884V16.9687H54.3452V15.7687ZM50.629 16.1084C50.1578 15.13 49.479 14.3798 48.5862 13.8752L47.9958 14.9199C48.6567 15.2934 49.1732 15.8512 49.5478 16.6291L50.629 16.1084ZM48.5916 13.8783C47.7291 13.379 46.7398 13.139 45.6477 13.139V14.339C46.56 14.339 47.3359 14.538 47.9904 14.9168L48.5916 13.8783ZM45.6477 13.139C44.4725 13.139 43.4034 13.4201 42.4567 13.9883L43.0742 15.0172C43.8192 14.5701 44.6716 14.339 45.6477 14.339V13.139ZM42.46 13.9863C41.5289 14.537 40.8014 15.3272 40.276 16.3275L41.3383 16.8856C41.769 16.0656 42.3471 15.4473 43.0709 15.0192L42.46 13.9863ZM40.2716 16.3361C39.761 17.3469 39.5222 18.5138 39.5222 19.8126H40.7222C40.7222 18.66 40.9339 17.6865 41.3427 16.8771L40.2716 16.3361ZM39.5222 19.8126C39.5222 21.116 39.7673 22.2605 40.2684 23.2827L41.3459 22.7545C40.9368 21.9199 40.7222 20.9606 40.7222 19.8126H39.5222ZM40.276 23.2977C40.8007 24.2966 41.521 25.0884 42.4509 25.6608L43.08 24.639C42.3458 24.1869 41.7698 23.561 41.3383 22.7396L40.276 23.2977ZM42.465 25.6692C43.4104 26.2162 44.4765 26.4862 45.6477 26.4862V25.2862C44.6676 25.2862 43.8122 25.0623 43.0659 24.6305L42.465 25.6692ZM45.6477 26.4862C46.7398 26.4862 47.7291 26.2462 48.5916 25.7469L47.9904 24.7084C47.3359 25.0872 46.56 25.2862 45.6477 25.2862V26.4862ZM48.5954 25.7447C49.4825 25.2224 50.1586 24.466 50.629 23.4894L49.5478 22.9687C49.1724 23.7482 48.6532 24.3181 47.9866 24.7106L48.5954 25.7447ZM50.0884 23.829H54.3452V22.629H50.0884V23.829ZM53.7752 23.0418C53.1983 24.7978 52.1917 26.1497 50.7581 27.1232L51.4322 28.116C53.0969 26.9856 54.2601 25.4105 54.9152 23.4163L53.7752 23.0418ZM50.7594 27.1223C49.3401 28.0807 47.6539 28.57 45.6753 28.57V29.77C47.8616 29.77 49.7886 29.2257 51.4309 28.1169L50.7594 27.1223ZM45.6753 28.57C44.0076 28.57 42.5138 28.1985 41.1804 27.4605L40.5994 28.5104C42.1252 29.3549 43.8217 29.77 45.6753 29.77V28.57ZM41.1872 27.4643C39.8696 26.7128 38.8279 25.6732 38.0523 24.3444L37.0159 24.9492C37.8953 26.456 39.0877 27.6483 40.5926 28.5067L41.1872 27.4643ZM38.0552 24.3494C37.3028 23.0308 36.9159 21.5206 36.9159 19.808H35.7159C35.7159 21.7085 36.1473 23.4272 37.013 24.9442L38.0552 24.3494ZM35.7159 19.808V19.8126H36.9159V19.808H35.7159Z" fill="white" mask="url(#path-4-inside-1_4_7041)"/>
<path d="M59.3596 15.4256L59.3596 15.4256L59.3629 15.4238C60.4597 14.819 61.6871 14.5144 63.0519 14.5144C64.4166 14.5144 65.6441 14.819 66.7409 15.4238L66.7409 15.4238L66.7441 15.4256C67.8386 16.0115 68.6987 16.8495 69.3239 17.94L69.3239 17.94L69.3257 17.9432C69.966 19.0296 70.2863 20.2927 70.2863 21.7332C70.2863 23.1716 69.9532 24.4341 69.2995 25.521L69.2981 25.5233C68.6545 26.6154 67.7796 27.4638 66.6652 28.0688C65.5686 28.6557 64.3312 28.9521 62.9461 28.9521C61.5805 28.9521 60.3625 28.6562 59.2849 28.0702C58.2081 27.4664 57.3561 26.6192 56.7302 25.528C56.1247 24.4403 55.8175 23.1752 55.8175 21.7332C55.8175 20.2926 56.1332 19.0288 56.756 17.9416C57.3999 16.8496 58.2654 16.0114 59.3596 15.4256ZM64.9652 25.8338L64.9652 25.8339L64.968 25.8323C65.6179 25.4692 66.1356 24.9373 66.5106 24.2406C66.8938 23.537 67.0754 22.6984 67.0754 21.7332C67.0754 20.2967 66.6936 19.1494 65.8818 18.34C65.1026 17.5267 64.1328 17.1204 62.9967 17.1204C61.8594 17.1204 60.8886 17.5276 60.1091 18.3427L60.1089 18.3428C59.3357 19.1523 58.9686 20.2981 58.9686 21.7332C58.9686 23.1666 59.3256 24.319 60.0768 25.1416L60.0767 25.1416L60.0814 25.1465C60.8435 25.9444 61.8055 26.3461 62.9415 26.3461H62.9461C63.6672 26.3461 64.3418 26.1735 64.9652 25.8338Z" fill="#80818B" stroke="white" stroke-width="0.6"/>
<path d="M75.6418 26.0966V26.3966H75.9418H79.678V28.7145H72.5413V9.8542H75.6418V26.0966Z" fill="#80818B" stroke="white" stroke-width="0.6"/>
<path d="M92.7908 16.5242V14.7478H95.9189V28.7144H92.7908V26.8832V25.928L92.2446 26.7117C91.7973 27.3535 91.1782 27.8909 90.3677 28.3293C89.5906 28.7414 88.68 28.9523 87.6272 28.9523C86.4495 28.9523 85.3739 28.6515 84.4026 28.051C83.45 27.4508 82.6813 26.6057 82.1066 25.5115C81.5517 24.402 81.2662 23.1281 81.2662 21.6785C81.2662 20.2463 81.5475 18.987 82.1059 17.8971C82.6804 16.8029 83.4483 15.9676 84.3993 15.3858C85.3703 14.8029 86.4561 14.51 87.6548 14.51C88.7083 14.51 89.6088 14.7211 90.3664 15.1322L90.3664 15.1322L90.3689 15.1336C91.1621 15.5545 91.7879 16.0801 92.2498 16.7029L92.7908 17.4322V16.5242ZM86.5543 17.6815L86.5534 17.682C85.9237 18.045 85.4089 18.5749 85.0171 19.2668L85.0165 19.2679C84.6323 19.9529 84.4495 20.7604 84.4495 21.6739C84.4495 22.588 84.6325 23.4107 85.0131 24.1287L85.0129 24.1287L85.0179 24.1374C85.4127 24.826 85.9204 25.3634 86.5473 25.7446L86.5473 25.7446L86.5509 25.7467C87.1936 26.1255 87.8804 26.3142 88.6063 26.3142C89.3274 26.3142 90.035 26.1371 90.6825 25.7781L90.6826 25.7782L90.6894 25.7742C91.3338 25.3944 91.8496 24.8657 92.2246 24.1883L92.2255 24.1866C92.6083 23.4843 92.7908 22.6598 92.7908 21.7288C92.7908 20.799 92.6087 19.9824 92.2247 19.2969C91.8466 18.6038 91.3355 18.0726 90.6864 17.7092C90.0432 17.3308 89.348 17.1434 88.6063 17.1434C87.8661 17.1434 87.1847 17.321 86.5543 17.6815Z" fill="#80818B" stroke="white" stroke-width="0.6"/>
<path d="M102.175 16.5791V17.55L102.723 16.7484C103.171 16.0923 103.781 15.5524 104.573 15.1344C105.371 14.7206 106.283 14.51 107.316 14.51C108.515 14.51 109.586 14.803 110.543 15.3856L110.545 15.3865C111.514 15.9684 112.281 16.803 112.836 17.8951L112.836 17.8951L112.839 17.9003C113.41 18.9703 113.7 20.2282 113.7 21.6786C113.7 23.1286 113.41 24.4019 112.837 25.5107L112.837 25.5116C112.276 26.6056 111.512 27.4503 110.542 28.0505L110.54 28.0518C109.588 28.6509 108.513 28.9523 107.316 28.9523C106.262 28.9523 105.351 28.7502 104.573 28.3556C103.802 27.9363 103.185 27.403 102.718 26.7615L102.175 26.0169V26.9381V28.7145H99.0749V9.8542H102.175V16.5746V16.5791ZM102.739 19.2975L102.739 19.2975L102.736 19.3032C102.354 20.0046 102.171 20.8197 102.171 21.7335C102.171 22.6473 102.354 23.4624 102.736 24.1638L102.736 24.1638L102.738 24.1681C103.13 24.8589 103.643 25.3965 104.274 25.7772L104.274 25.7774L104.283 25.7823C104.925 26.1409 105.61 26.3189 106.332 26.3189C107.056 26.3189 107.758 26.1312 108.389 25.7506C109.034 25.37 109.549 24.8317 109.927 24.1385C110.324 23.4372 110.521 22.6123 110.521 21.6786C110.521 20.7598 110.329 19.9562 109.926 19.2712C109.548 18.5791 109.037 18.0484 108.383 17.6854C107.757 17.325 107.071 17.1481 106.332 17.1481C105.588 17.1481 104.92 17.3369 104.278 17.7146C103.644 18.0781 103.134 18.6082 102.739 19.2975Z" fill="#80818B" stroke="white" stroke-width="0.6"/>
</svg>
