<svg width="194" height="40" viewBox="0 0 194 40" fill="none" xmlns="http://www.w3.org/2000/svg">
<path d="M162.07 37.2012H157.82V2.33911H162.07V37.2012Z" fill="#EE2B47" stroke="white"/>
<path d="M103.725 36.501V37.1964H100.095V2.91821H104.383V17.5309V18.4459L105.153 17.9516C106.355 17.1803 107.824 16.7803 109.591 16.7803C111.503 16.7803 113.14 17.2372 114.53 18.1308C115.929 19.0305 117.014 20.2648 117.785 21.8465L117.785 21.8465L117.787 21.851C118.571 23.4179 118.971 25.2245 118.971 27.2826C118.971 29.3397 118.58 31.0934 117.808 32.6773L117.807 32.6803C117.048 34.2638 115.984 35.5036 114.623 36.4168C113.275 37.3212 111.691 37.7803 109.867 37.7803H109.857C107.863 37.7803 106.24 37.3168 104.952 36.4215C104.81 36.3224 104.672 36.2192 104.539 36.1118L103.725 35.4554V36.501ZM109.007 34.1136C110.265 34.1136 111.269 33.8103 112.094 33.1554C112.896 32.5263 113.481 31.6872 113.854 30.6575L113.854 30.6573C114.226 29.629 114.403 28.5035 114.403 27.2826C114.403 26.0582 114.216 24.9589 113.834 23.9443C113.445 22.8977 112.83 22.0543 111.99 21.4273C111.139 20.7667 110.063 20.4561 108.814 20.4561C107.64 20.4561 106.635 20.7382 105.845 21.3521L105.842 21.3542C105.081 21.9537 104.544 22.7825 104.211 23.8093L104.209 23.8091C103.882 24.821 103.721 25.9828 103.721 27.2826C103.721 28.5824 103.882 29.7442 104.209 30.7561C104.544 31.7901 105.099 32.6214 105.886 33.2206L105.889 33.2234C106.709 33.8352 107.762 34.1136 109.007 34.1136Z" fill="#EE2B47" stroke="white"/>
<path d="M91.7966 25.3885V24.8885H91.7731C91.7012 23.6601 91.355 22.6357 90.6845 21.8601C89.9324 20.9599 88.8918 20.5253 87.623 20.5253C86.8086 20.5253 86.078 20.7144 85.4435 21.122C84.8162 21.5111 84.3342 22.0619 83.9896 22.7511L83.9889 22.7525C83.6495 23.4364 83.4908 24.2142 83.4908 25.0758V37.1965H79.2448V25.3839C79.2448 23.9319 78.9014 22.734 78.1419 21.8555C77.3875 20.9526 76.2947 20.5207 75.0805 20.5207C73.8544 20.5207 72.8358 20.9554 72.0623 21.8296L72.0609 21.8312C71.3079 22.6895 70.9529 23.785 70.9529 25.0758V37.1965H66.6655V17.3552H70.2954V19.1402V20.5454L71.183 19.456C71.7473 18.7636 72.4367 18.1928 73.2564 17.7396C74.3359 17.1531 75.5443 16.854 76.8966 16.854C78.459 16.854 79.6929 17.1883 80.6334 17.814L80.6345 17.8147C81.4393 18.347 82.0677 19.0191 82.519 19.8332L82.9142 20.5459L83.3705 19.8708C83.9866 18.9596 84.7802 18.2467 85.7577 17.7236L85.7588 17.723C86.8257 17.1489 88.0124 16.8586 89.3241 16.8586C91.6032 16.8586 93.2387 17.532 94.3278 18.8074L94.3278 18.8074L94.3312 18.8114C95.4581 20.1035 96.0425 21.8168 96.0425 24V37.2011H91.7966V25.3885Z" fill="#EE2B47" stroke="white"/>
<path d="M43.7184 28.5472V17.3552H48.0425V26.6943C48.0425 27.1891 48.071 27.8136 48.1218 28.5627L48.1219 28.5631C48.1759 29.3484 48.3473 30.1342 48.6332 30.9193C48.9298 31.7473 49.4186 32.4474 50.0954 33.0063L50.0954 33.0063L50.0997 33.0098C50.8384 33.6062 51.8332 33.8748 53.0207 33.8748C53.5249 33.8748 54.052 33.7926 54.5983 33.6462C55.1987 33.4854 55.7491 33.1719 56.2492 32.728L56.2492 32.728L56.2534 32.7242C56.7834 32.2428 57.1837 31.5653 57.4858 30.7323C57.8076 29.8567 57.9575 28.7534 57.9575 27.4345V17.3598H62.2448V37.2012H58.6149V35.5541V34.2483L57.7428 35.2201C57.2905 35.7241 56.7627 36.1747 56.1615 36.5711L56.1594 36.5725C54.924 37.3961 53.3359 37.8219 51.3609 37.8219C49.9341 37.8219 48.7862 37.6012 47.8891 37.1913L47.6062 37.0398C46.6381 36.5211 45.8989 35.8742 45.3711 35.1002C44.8339 34.2916 44.4539 33.4638 44.2257 32.607L44.2256 32.6066C43.9838 31.7022 43.8434 30.8934 43.7954 30.1737C43.7448 29.4144 43.7184 28.8779 43.7184 28.5472Z" fill="#EE2B47" stroke="white"/>
<path d="M133.518 21.1332C133.035 21.0554 132.512 21.0415 131.953 21.0878C131.141 21.1425 130.391 21.3306 129.714 21.6535C129.045 21.9633 128.465 22.3781 127.992 22.9112C127.514 23.4313 127.165 24.0439 126.925 24.7437C126.688 25.4341 126.571 26.2027 126.571 27.0485V37.2014H122.284V17.36H125.914V20.2117V22.1068L126.849 20.4584C127.013 20.1693 127.194 19.8934 127.392 19.6307C127.802 19.0911 128.304 18.6473 128.906 18.2934L128.906 18.2935L128.915 18.2882C129.375 18.0051 129.879 17.7845 130.429 17.6312L130.429 17.6313L130.439 17.6282C130.995 17.4601 131.568 17.3568 132.158 17.3223L132.165 17.3219L132.172 17.3213C132.62 17.2821 133.069 17.2798 133.518 17.3128V21.1332Z" fill="#EE2B47" stroke="white"/>
<path d="M139.553 18.1191L139.553 18.1191L139.556 18.1175C141.052 17.2307 142.782 16.7805 144.763 16.7805C146.871 16.7805 148.627 17.2754 150.061 18.2402C151.501 19.2085 152.571 20.5723 153.273 22.3493C153.93 24.016 154.19 25.9766 154.046 28.2449H139.876H139.305L139.38 28.8105C139.554 30.1252 139.965 31.2322 140.645 32.1013L140.645 32.1013L140.649 32.1065C141.615 33.307 143.015 33.8748 144.763 33.8748C145.868 33.8748 146.84 33.6324 147.668 33.1253L147.407 32.6989L147.668 33.1253C148.378 32.6905 148.935 32.0932 149.346 31.3444L153.645 32.5752C152.895 34.1384 151.797 35.3654 150.348 36.2649L150.346 36.2658C148.744 37.2685 146.987 37.7713 145.076 37.7713H144.767L144.764 37.7772C142.829 37.7356 141.136 37.2986 139.662 36.4749C138.117 35.5952 136.909 34.3911 136.03 32.8609C135.163 31.322 134.725 29.5607 134.725 27.5495C134.725 25.3402 135.162 23.4425 136.018 21.8402C136.878 20.2307 138.055 18.9945 139.553 18.1191ZM148.697 21.9471L148.547 21.7437H148.535C147.734 20.7792 146.517 20.3368 144.989 20.3368C143.094 20.3368 141.611 20.9216 140.64 22.1714L140.638 22.1731C140.104 22.8663 139.739 23.7307 139.52 24.7454L139.39 25.3506H140.009H149.195H149.767L149.691 24.7842C149.533 23.6083 149.216 22.6519 148.697 21.9471Z" fill="#EE2B47" stroke="white"/>
<path d="M167.309 37.2012V2.33911H171.56V37.2012H167.309Z" fill="#EE2B47" stroke="white"/>
<path d="M188.221 23.9081C187.762 23.977 187.316 24.0446 186.883 24.1104C186.476 24.172 186.081 24.2319 185.697 24.2897C184.345 24.4828 183.136 24.6897 182.069 24.9058C181.002 25.1265 180.083 25.3748 179.31 25.6598M188.221 23.9081L175.986 34.8918M188.221 23.9081C188.207 23.7933 188.19 23.682 188.171 23.5744L188.221 23.9081ZM179.31 25.6598C178.193 26.0736 177.297 26.584 176.63 27.2047C175.972 27.8116 175.499 28.5104 175.2 29.3058M179.31 25.6598L179.484 26.1287C179.484 26.1287 179.484 26.1288 179.484 26.1288M179.31 25.6598L179.483 26.1289C179.483 26.1289 179.484 26.1289 179.484 26.1288M175.2 29.3058C174.906 30.1058 174.759 30.984 174.759 31.9495C174.759 33.1081 175.021 34.1702 175.549 35.1357L175.984 34.8881C175.984 34.8893 175.985 34.8906 175.986 34.8918M175.2 29.3058L175.669 29.4784C175.669 29.479 175.669 29.4795 175.669 29.4801M175.2 29.3058L175.668 29.4817C175.668 29.4811 175.668 29.4806 175.669 29.4801M175.986 34.8918C176.481 35.7583 177.194 36.4613 178.147 36.9933L178.229 37.0392C179.167 37.5248 180.316 37.7805 181.701 37.7805C183.449 37.7805 184.848 37.4813 185.927 36.9144C186.794 36.4529 187.629 35.7618 188.423 34.8222L189.305 33.7786V35.1449V37.2012H192.898V24.9656C192.898 24.0261 192.861 23.1837 192.785 22.432C192.714 21.7316 192.493 21.0219 192.106 20.3005L192.105 20.2985C191.423 19.0113 190.437 18.1162 189.122 17.596C187.76 17.0576 186.192 16.7805 184.405 16.7805C181.962 16.7805 180.102 17.3086 178.758 18.305C177.524 19.2225 176.647 20.3804 176.126 21.7875L179.947 22.9983C180.342 22.1617 180.954 21.5418 181.787 21.1708C182.676 20.7756 183.549 20.5667 184.405 20.5667C185.839 20.5667 186.996 20.8619 187.725 21.579C188.295 22.1377 188.607 22.9156 188.717 23.8497L188.774 24.3306L188.295 24.4026C187.852 24.4692 187.42 24.5346 186.999 24.5984L186.956 24.6049C186.551 24.6664 186.155 24.7264 185.771 24.7842L185.767 24.7847L185.767 24.7847C184.424 24.9766 183.225 25.1819 182.169 25.3957C181.118 25.6131 180.225 25.8553 179.484 26.1288M175.986 34.8918C175.501 34.0054 175.259 33.0279 175.259 31.9495C175.259 31.0361 175.398 30.2178 175.669 29.4801M179.484 26.1288C178.407 26.5275 177.575 27.0081 176.971 27.5706L176.969 27.5721C176.367 28.1278 175.939 28.7613 175.669 29.4801M185.751 33.9522L185.478 34.0914C184.731 34.4726 183.839 34.6472 182.818 34.6472C182.162 34.6472 181.575 34.5479 181.065 34.3385C180.555 34.1289 180.135 33.818 179.83 33.3973L179.823 33.3879L179.817 33.3783C179.528 32.9397 179.385 32.433 179.385 31.8667C179.385 31.4538 179.468 31.0585 179.649 30.696L179.655 30.6846L179.655 30.6847C179.85 30.3184 180.141 30.0136 180.488 29.7493L180.489 29.7486C180.857 29.4702 181.318 29.2251 181.86 29.0074L181.867 29.0046L181.874 29.002C182.345 28.8288 182.883 28.6672 183.492 28.5208C184.1 28.3747 184.889 28.221 185.856 28.0506M185.751 33.9522L185.945 28.5426M185.751 33.9522V33.9345M185.751 33.9522V33.9345M185.856 28.0506C185.857 28.0504 185.857 28.0503 185.858 28.0502L185.945 28.5426M185.856 28.0506C185.855 28.0507 185.854 28.0508 185.854 28.0509L185.945 28.5426M185.856 28.0506C186.478 27.9353 187.22 27.8017 188.086 27.6543L188.693 27.551L188.67 28.1659C188.656 28.5351 188.637 28.9531 188.605 29.4228M185.945 28.5426C186.441 28.4506 187.014 28.3469 187.666 28.2338C187.668 28.1983 187.669 28.1632 187.67 28.1284L188.17 28.1472L188.254 28.6401C188.219 28.6461 188.183 28.6521 188.149 28.6581C188.138 28.8877 188.124 29.1325 188.106 29.3932M188.605 29.4228C188.605 29.4212 188.605 29.4195 188.605 29.4178L188.106 29.3932M188.605 29.4228C188.605 29.4245 188.605 29.4261 188.605 29.4277L188.106 29.3932M188.605 29.4228C188.565 30.2207 188.396 30.9435 188.092 31.5772L188.091 31.5789C187.918 31.9369 187.61 32.3458 187.205 32.7933M188.106 29.3932C188.069 30.138 187.913 30.7955 187.641 31.361C187.499 31.6552 187.228 32.023 186.832 32.4598M187.205 32.7933C187.205 32.7925 187.206 32.7918 187.207 32.791L186.832 32.4598M187.205 32.7933C186.826 33.2215 186.336 33.6022 185.751 33.9345M187.205 32.7933C187.204 32.794 187.203 32.7947 187.203 32.7954L186.832 32.4598M186.832 32.4598L185.751 33.9345" fill="#EE2B47" stroke="white"/>
<path d="M14.2529 17.5115H14.7529V17.0115V7.12644C14.7529 5.45259 13.398 4.0977 11.7241 4.0977C10.2206 4.0977 8.97446 5.19087 8.7364 6.62644H5.11628C5.37191 3.20047 8.23285 0.5 11.7241 0.5C15.3836 0.5 18.3506 3.46695 18.3506 7.12644V17.0115V17.5115H18.8506H33.0632V23.2184C33.0632 32.2112 25.7744 39.5 16.7816 39.5C7.78879 39.5 0.5 32.2112 0.5 23.2184V17.5115H14.2529ZM14.7529 21.6092V21.1092H14.2529H4.5977H4.0977V21.6092V23.2184C4.0977 30.2256 9.77443 35.9023 16.7816 35.9023C23.7888 35.9023 29.4655 30.2256 29.4655 23.2184V21.6092V21.1092H28.9655H18.8506H18.3506V21.6092V29.8448H14.7529V21.6092Z" fill="#EE2B47" stroke="white"/>
</svg>
