<svg width="50" height="50" viewBox="0 0 50 50" fill="none" xmlns="http://www.w3.org/2000/svg">
<path d="M43.5625 23.1667C43.5625 33.3542 36.1667 42.8959 26.0625 45.6875C25.375 45.875 24.625 45.875 23.9375 45.6875C13.8333 42.8959 6.4375 33.3542 6.4375 23.1667V14.0208C6.4375 12.3125 7.7292 10.375 9.33336 9.72918L20.9375 4.97925C23.5417 3.91675 26.4792 3.91675 29.0833 4.97925L40.6875 9.72918C42.2708 10.375 43.5834 12.3125 43.5834 14.0208L43.5625 23.1667Z" stroke="#EE2B47" stroke-width="2.5" stroke-linecap="round" stroke-linejoin="round"/>
<path d="M25.0007 26.0418C27.3018 26.0418 29.1673 24.1763 29.1673 21.8752C29.1673 19.574 27.3018 17.7085 25.0007 17.7085C22.6995 17.7085 20.834 19.574 20.834 21.8752C20.834 24.1763 22.6995 26.0418 25.0007 26.0418Z" stroke="#EE2B47" stroke-width="2.5" stroke-miterlimit="10" stroke-linecap="round" stroke-linejoin="round"/>
<path d="M25.001 26.0417V32.2917" stroke="#EE2B47" stroke-width="2.5" stroke-miterlimit="10" stroke-linecap="round" stroke-linejoin="round"/>
</svg>
