<svg width="106" height="18" viewBox="0 0 106 18" fill="none" xmlns="http://www.w3.org/2000/svg">
<path d="M11.6718 5.73541L8.92966 0.145569L6.15231 5.73541L-3.05176e-05 6.64948L4.46481 10.9737L3.41013 17.126L8.92966 14.2432L14.414 17.126L13.3945 10.9737L17.8242 6.64948L11.6718 5.73541ZM33.6718 5.73541L30.9297 0.145569L28.1523 5.73541L22 6.64948L26.4648 10.9737L25.4101 17.126L30.9297 14.2432L36.414 17.126L35.3945 10.9737L39.8242 6.64948L33.6718 5.73541ZM55.6718 5.73541L52.9297 0.145569L50.1523 5.73541L44 6.64948L48.4648 10.9737L47.4101 17.126L52.9297 14.2432L58.414 17.126L57.3945 10.9737L61.8242 6.64948L55.6718 5.73541ZM77.6718 5.73541L74.9297 0.145569L72.1523 5.73541L66 6.64948L70.4648 10.9737L69.4101 17.126L74.9297 14.2432L80.414 17.126L79.3945 10.9737L83.8242 6.64948L77.6718 5.73541ZM99.6718 5.73541L96.9297 0.145569L94.1523 5.73541L88 6.64948L92.4648 10.9737L91.4101 17.126L96.9297 14.2432L102.414 17.126L101.395 10.9737L105.824 6.64948L99.6718 5.73541Z" fill="#FF9933"/>
</svg>
