<svg width="14" height="14" viewBox="0 0 14 14" fill="none" xmlns="http://www.w3.org/2000/svg">
<path opacity="0.8" d="M8.41483 3.29332C8.97459 3.40259 9.48904 3.67649 9.89231 4.07998C10.2956 4.48346 10.5694 4.99817 10.6786 5.55822M8.41483 0.999756C9.5778 1.12902 10.6623 1.65008 11.4902 2.47739C12.3181 3.3047 12.8403 4.38908 12.971 5.55248M12.3979 10.1281V11.8483C12.3985 12.008 12.3658 12.1661 12.3019 12.3124C12.2379 12.4587 12.1442 12.5901 12.0265 12.698C11.9089 12.806 11.7701 12.8882 11.6189 12.9393C11.4677 12.9905 11.3075 13.0095 11.1485 12.9951C9.38499 12.8034 7.691 12.2005 6.20266 11.2348C4.81796 10.3544 3.64397 9.17985 2.76407 7.79444C1.79552 6.29858 1.19277 4.59549 1.00465 2.82314C0.99033 2.66458 1.00916 2.50477 1.05996 2.35389C1.11075 2.20301 1.19238 2.06437 1.29966 1.94678C1.40695 1.8292 1.53752 1.73525 1.68308 1.67092C1.82864 1.6066 1.98599 1.5733 2.14512 1.57315H3.86442C4.14255 1.57041 4.41218 1.66895 4.62306 1.8504C4.83395 2.03185 4.97169 2.28384 5.01062 2.55938C5.08318 3.10987 5.21776 3.65039 5.41179 4.17061C5.48889 4.37584 5.50558 4.59888 5.45987 4.81331C5.41416 5.02774 5.30798 5.22457 5.15389 5.38047L4.42606 6.10867C5.24189 7.54418 6.42987 8.73277 7.86465 9.54902L8.59249 8.82081C8.74831 8.66665 8.94503 8.56041 9.15935 8.51468C9.37367 8.46894 9.5966 8.48564 9.80173 8.56279C10.3217 8.75691 10.8619 8.89156 11.4121 8.96416C11.6905 9.00345 11.9448 9.14375 12.1265 9.35836C12.3083 9.57298 12.4048 9.84694 12.3979 10.1281Z" stroke="white" stroke-width="1.5" stroke-linecap="round" stroke-linejoin="round"/>
</svg>
