<svg width="50" height="50" viewBox="0 0 50 50" fill="none" xmlns="http://www.w3.org/2000/svg">
<path d="M10.916 18.749V18.249H10.416H8.33301C4.00755 18.249 0.5 14.7424 0.5 10.416V8.33301C0.5 4.00759 4.00759 0.5 8.33301 0.5H16.667C20.9924 0.5 24.4999 4.00759 24.499 8.3329V8.33301V10.416C24.499 14.7415 20.9924 18.249 16.666 18.249H14.583H14.083V18.749V22.916V23.416H14.583H18.75C19.6242 23.416 20.333 24.1248 20.333 24.999C20.333 25.8733 19.6242 26.582 18.75 26.582H6.24902C5.37478 26.582 4.66602 25.8733 4.66602 24.999C4.66602 24.1248 5.37478 23.416 6.24902 23.416H10.416H10.916V22.916V18.749ZM21.334 10.417V9.91699H21.333V8.33398C21.333 5.75601 19.2429 3.66699 16.666 3.66699H8.33301C5.75503 3.66699 3.66602 5.75714 3.66602 8.33398V10.417C3.66602 12.995 5.75616 15.084 8.33301 15.084H16.667C19.245 15.084 21.334 12.9938 21.334 10.417ZM29.668 8.33398V8.27693C29.6975 7.42865 30.3945 6.75 31.25 6.75H35.417C38.593 6.75 41.167 9.32399 41.167 12.5V16.667C41.167 17.5412 40.4582 18.25 39.584 18.25C38.7097 18.25 38.001 17.5412 38.001 16.667V12.5C38.001 11.0735 36.8445 9.91699 35.418 9.91699H31.251C30.3767 9.91699 29.668 9.20823 29.668 8.33398ZM24.499 41.665V41.7221C24.4695 42.5704 23.7725 43.249 22.917 43.249H16.667C13.491 43.249 10.917 40.675 10.917 37.499V33.332C10.917 32.4578 11.6258 31.749 12.5 31.749C13.3742 31.749 14.083 32.4578 14.083 33.332V37.499C14.083 38.9256 15.2395 40.082 16.666 40.082H22.916C23.7903 40.082 24.499 40.7908 24.499 41.665ZM37.5 23.417H41.667C45.9925 23.417 49.5 26.9236 49.5 31.25V41.667C49.5 45.9925 45.9934 49.5 41.667 49.5H37.5C33.1745 49.5 29.667 45.9934 29.667 41.667V31.25C29.667 26.9245 33.1736 23.417 37.5 23.417ZM41.667 46.334C44.245 46.334 46.334 44.2438 46.334 41.667V31.25C46.334 28.672 44.2438 26.583 41.667 26.583H37.5C34.922 26.583 32.833 28.6732 32.833 31.25V41.667C32.833 44.245 34.9232 46.334 37.5 46.334H41.667ZM41.167 41.666C41.167 42.5403 40.4582 43.249 39.584 43.249C38.7097 43.249 38.001 42.5403 38.001 41.666C38.001 40.7918 38.7097 40.083 39.584 40.083C40.4582 40.083 41.167 40.7918 41.167 41.666Z" fill="#EE2B47" stroke="#FEEEF1"/>
</svg>
