<svg width="50" height="50" viewBox="0 0 50 50" fill="none" xmlns="http://www.w3.org/2000/svg">
<path d="M35.417 20.8334H39.5837C43.7503 20.8334 45.8337 18.7501 45.8337 14.5834V10.4167C45.8337 6.25008 43.7503 4.16675 39.5837 4.16675H35.417C31.2503 4.16675 29.167 6.25008 29.167 10.4167V14.5834C29.167 18.7501 31.2503 20.8334 35.417 20.8334Z" stroke="#EE2B47" stroke-width="2.5" stroke-miterlimit="10" stroke-linecap="round" stroke-linejoin="round"/>
<path d="M10.417 45.8334H14.5837C18.7503 45.8334 20.8337 43.7501 20.8337 39.5834V35.4167C20.8337 31.2501 18.7503 29.1667 14.5837 29.1667H10.417C6.25033 29.1667 4.16699 31.2501 4.16699 35.4167V39.5834C4.16699 43.7501 6.25033 45.8334 10.417 45.8334Z" stroke="#EE2B47" stroke-width="2.5" stroke-miterlimit="10" stroke-linecap="round" stroke-linejoin="round"/>
<path d="M12.5003 20.8334C17.1027 20.8334 20.8337 17.1025 20.8337 12.5001C20.8337 7.89771 17.1027 4.16675 12.5003 4.16675C7.89795 4.16675 4.16699 7.89771 4.16699 12.5001C4.16699 17.1025 7.89795 20.8334 12.5003 20.8334Z" stroke="#EE2B47" stroke-width="2.5" stroke-miterlimit="10" stroke-linecap="round" stroke-linejoin="round"/>
<path d="M37.5003 45.8334C42.1027 45.8334 45.8337 42.1025 45.8337 37.5001C45.8337 32.8977 42.1027 29.1667 37.5003 29.1667C32.898 29.1667 29.167 32.8977 29.167 37.5001C29.167 42.1025 32.898 45.8334 37.5003 45.8334Z" stroke="#EE2B47" stroke-width="2.5" stroke-miterlimit="10" stroke-linecap="round" stroke-linejoin="round"/>
</svg>
