<svg width="50" height="50" viewBox="0 0 50 50" fill="none" xmlns="http://www.w3.org/2000/svg">
<path d="M14.583 19.0835C14.583 17.146 16.1663 15.5625 18.1038 15.5625C20.0413 15.5625 21.6247 17.146 21.6247 19.0835C21.6247 23.0001 16.0622 23.4168 14.833 27.146C14.583 27.9168 15.2288 28.6876 16.0413 28.6876H21.6247" stroke="#EE2B47" stroke-width="2.5" stroke-linecap="round" stroke-linejoin="round"/>
<path d="M33.4167 28.6666V16.7709C33.4167 16.2292 33.0625 15.7499 32.5417 15.6041C32.0208 15.4583 31.4583 15.6666 31.1667 16.1249C29.6667 18.5416 28.0417 21.2916 26.625 23.7083C26.3958 24.1041 26.3958 24.625 26.625 25.0208C26.8542 25.4166 27.2917 25.6665 27.7708 25.6665H35.4167" stroke="#EE2B47" stroke-width="2.5" stroke-linecap="round" stroke-linejoin="round"/>
<path d="M37.5 39.2916H35.9167C34.25 39.2916 32.6667 39.9374 31.5 41.1041L27.9375 44.6251C26.3125 46.2292 23.6667 46.2292 22.0417 44.6251L18.4792 41.1041C17.3125 39.9374 15.7083 39.2916 14.0625 39.2916H12.5C9.04167 39.2916 6.25 36.5208 6.25 33.1042V10.3749C6.25 6.95827 9.04167 4.1875 12.5 4.1875H37.5C40.9583 4.1875 43.75 6.95827 43.75 10.3749V33.1042C43.75 36.5 40.9583 39.2916 37.5 39.2916Z" stroke="#EE2B47" stroke-width="2.5" stroke-miterlimit="10" stroke-linecap="round" stroke-linejoin="round"/>
</svg>
