<svg width="50" height="48" viewBox="0 0 50 48" fill="none" xmlns="http://www.w3.org/2000/svg">
<path d="M46.1347 16.2729L45.6364 16.6656L46.1348 17.0583C47.1789 17.8808 48.0237 18.9287 48.6061 20.1235C49.1882 21.3178 49.4931 22.6281 49.4981 23.9566C49.4931 25.2852 49.1882 26.5955 48.6061 27.7898C48.0237 28.9846 47.1789 30.0324 46.1348 30.855L45.6364 31.2477L46.1347 31.6404C47.5793 32.7792 48.6324 34.3405 49.1471 36.1064C49.6618 37.8724 49.6124 39.755 49.0059 41.4916C48.3994 43.2281 47.266 44.7321 45.7638 45.7936C44.2616 46.8552 42.4655 47.4214 40.6261 47.4132H40.6238L9.37616 47.4132L9.37394 47.4132C7.53451 47.4214 5.73841 46.8552 4.23619 45.7936C2.73397 44.7321 1.60055 43.2281 0.994048 41.4916C0.387547 39.755 0.338214 37.8724 0.852928 36.1064C1.36764 34.3405 2.42074 32.7792 3.8653 31.6404L4.36542 31.2462L3.86375 30.8539C2.81644 30.035 1.96938 28.9883 1.38682 27.7932C0.804265 26.5982 0.501503 25.2861 0.501503 23.9566C0.501503 22.6272 0.804265 21.3151 1.38682 20.1201C1.96938 18.925 2.81644 17.8783 3.86375 17.0594L4.36542 16.6671L3.8653 16.2729C2.42074 15.1341 1.36764 13.5728 0.852928 11.8069C0.338214 10.0409 0.387547 8.15832 0.994048 6.42174C1.60055 4.68516 2.73397 3.1812 4.23619 2.11965C5.73841 1.05811 7.53451 0.491922 9.37394 0.500092H9.37616L40.6238 0.500097L40.6261 0.500087C42.4655 0.491922 44.2616 1.05811 45.7638 2.11965C47.266 3.1812 48.3994 4.68516 49.0059 6.42174C49.6124 8.15832 49.6618 10.0409 49.1471 11.8069C48.6324 13.5728 47.5793 15.1341 46.1347 16.2729ZM10.9177 4.16645V3.66645H10.4177H9.37616C7.86232 3.66645 6.41048 4.26782 5.34003 5.33827C4.26958 6.40872 3.66821 7.86056 3.66821 9.3744C3.66821 10.8882 4.26958 12.3401 5.34003 13.4105C6.41048 14.481 7.86232 15.0823 9.37616 15.0823H40.6238C42.1377 15.0823 43.5895 14.481 44.66 13.4105C45.7304 12.3401 46.3318 10.8882 46.3318 9.3744C46.3318 7.86056 45.7304 6.40872 44.66 5.33827C43.5895 4.26782 42.1377 3.66645 40.6238 3.66645H22.9168H22.4168V4.16645V6.24963C22.4168 6.66951 22.25 7.0722 21.9531 7.3691C21.6562 7.66601 21.2535 7.83281 20.8336 7.83281C20.4138 7.83281 20.0111 7.66601 19.7142 7.36911C19.4173 7.0722 19.2505 6.66951 19.2505 6.24963V4.16645V3.66645H18.7505H14.5841H14.0841V4.16645V6.24963C14.0841 6.66951 13.9173 7.0722 13.6204 7.3691C13.3235 7.66601 12.9208 7.83281 12.5009 7.83281C12.081 7.83281 11.6784 7.66601 11.3815 7.3691C11.0845 7.0722 10.9177 6.66951 10.9177 6.24963V4.16645ZM10.9177 33.331V32.831H10.4177H9.37616C7.86232 32.831 6.41048 33.4323 5.34003 34.5028C4.26958 35.5732 3.66821 37.0251 3.66821 38.5389C3.66821 40.0527 4.26958 41.5046 5.34003 42.575C6.41048 43.6455 7.86232 44.2468 9.37616 44.2468H40.6238C42.1377 44.2468 43.5895 43.6455 44.66 42.575C45.7304 41.5046 46.3318 40.0527 46.3318 38.5389C46.3318 37.0251 45.7304 35.5732 44.66 34.5028C43.5895 33.4323 42.1377 32.831 40.6238 32.831H22.9168H22.4168V33.331V35.4141C22.4168 35.834 22.25 36.2367 21.9531 36.5336C21.6562 36.8305 21.2535 36.9973 20.8336 36.9973C20.4138 36.9973 20.0111 36.8305 19.7142 36.5336C19.4173 36.2367 19.2505 35.834 19.2505 35.4141V33.331V32.831H18.7505H14.5841H14.0841V33.331V35.4141C14.0841 35.834 13.9173 36.2367 13.6204 36.5336C13.3235 36.8305 12.9208 36.9973 12.5009 36.9973C12.081 36.9973 11.6784 36.8305 11.3814 36.5336C11.0845 36.2367 10.9177 35.834 10.9177 35.4141V33.331ZM10.9177 18.7487V18.2487H10.4177H9.37616C7.86232 18.2487 6.41048 18.8501 5.34003 19.9205C4.26958 20.991 3.66821 22.4428 3.66821 23.9566C3.66821 25.4705 4.26958 26.9223 5.34003 27.9928C6.41048 29.0632 7.86232 29.6646 9.37616 29.6646H40.6238C42.1377 29.6646 43.5895 29.0632 44.66 27.9928C45.7304 26.9223 46.3318 25.4705 46.3318 23.9566C46.3318 22.4428 45.7304 20.991 44.66 19.9205C43.5895 18.8501 42.1377 18.2487 40.6238 18.2487H22.9168H22.4168V18.7487V20.8319C22.4168 21.2518 22.25 21.6545 21.9531 21.9514C21.6562 22.2483 21.2535 22.4151 20.8336 22.4151C20.4138 22.4151 20.0111 22.2483 19.7142 21.9514C19.4173 21.6545 19.2505 21.2518 19.2505 20.8319V18.7487V18.2487H18.7505H14.5841H14.0841V18.7487V20.8319C14.0841 21.2518 13.9173 21.6545 13.6204 21.9514C13.3235 22.2483 12.9208 22.4151 12.5009 22.4151C12.081 22.4151 11.6784 22.2483 11.3815 21.9514C11.0845 21.6545 10.9177 21.2518 10.9177 20.8319V18.7487Z" fill="#EE2B47" stroke="#FEEEF1"/>
</svg>
