<svg width="50" height="50" viewBox="0 0 50 50" fill="none" xmlns="http://www.w3.org/2000/svg">
<path d="M30.5131 42.165H30.8654H47.9148C48.3347 42.165 48.7374 42.3318 49.0343 42.6287C49.3312 42.9257 49.498 43.3284 49.498 43.7483C49.498 44.1682 49.3312 44.5709 49.0343 44.8678C48.7374 45.1647 48.3347 45.3315 47.9148 45.3315H30.8654H30.5102L30.3933 45.667C30.0032 46.7868 29.2743 47.7574 28.3077 48.4442C27.3411 49.131 26.1848 49.5 24.999 49.5C23.8133 49.5 22.6569 49.131 21.6903 48.4442C20.7237 47.7574 19.9948 46.7868 19.6047 45.667L19.4879 45.3315H19.1326H2.08325C1.66335 45.3315 1.26064 45.1647 0.963724 44.8678C0.666807 44.5709 0.5 44.1682 0.5 43.7483C0.5 43.3284 0.666807 42.9257 0.963724 42.6287C1.26064 42.3318 1.66335 42.165 2.08325 42.165H19.1326H19.4849L19.6034 41.8332C19.8898 41.0316 20.3505 40.3036 20.9524 39.7017C21.5543 39.0998 22.2824 38.639 23.084 38.3527L23.4158 38.2342V37.8818V29.1655V28.6655H22.9158L10.4163 28.6655L10.4144 28.6655C9.25207 28.6697 8.11594 28.3202 7.15701 27.6632C6.19807 27.0063 5.46175 26.0731 5.04587 24.9877C4.63 23.9022 4.55427 22.7159 4.82874 21.5864C5.10321 20.4569 5.71489 19.4377 6.5825 18.6642L6.74975 18.515V18.2909V8.333C6.74975 6.25556 7.57501 4.26321 9.04399 2.79423C10.513 1.32526 12.5053 0.5 14.5828 0.5H35.4153C37.4927 0.5 39.4851 1.32526 40.954 2.79423C42.423 4.26321 43.2483 6.25556 43.2483 8.333V18.2909V18.515L43.4155 18.6642C44.2831 19.4377 44.8948 20.4569 45.1693 21.5864C45.4438 22.716 45.368 23.9022 44.9522 24.9877C44.5363 26.0731 43.8 27.0063 42.841 27.6632C41.8821 28.3202 40.746 28.6697 39.5836 28.6655H39.5818H27.0823H26.5823V29.1655V37.8818V38.2342L26.9141 38.3527C27.7157 38.639 28.4437 39.0998 29.0456 39.7017C29.6475 40.3036 30.1082 41.0316 30.3946 41.8332L30.5131 42.165ZM39.5818 17.166H40.0818V16.666V8.333C40.0818 7.09537 39.5901 5.90843 38.715 5.03329C37.8398 4.15815 36.6529 3.6665 35.4153 3.6665H14.5828C13.3451 3.6665 12.1582 4.15815 11.283 5.03329C10.4079 5.90843 9.91626 7.09537 9.91626 8.333V16.666V17.166H10.4163L17.8868 17.166L17.8882 17.166C18.3693 17.1647 18.846 17.2589 19.2906 17.4431C19.7351 17.6274 20.1387 17.898 20.4779 18.2393L20.479 18.2404L21.3414 19.1028L21.4879 19.2493H21.695H28.3031H28.5102L28.6566 19.1028L29.5191 18.2404L29.5202 18.2393C29.8594 17.898 30.2629 17.6274 30.7075 17.4431C31.152 17.2589 31.6287 17.1647 32.1099 17.166H32.1112H39.5818ZM18.2404 20.479L18.0939 20.3325H17.8868H10.4163C9.73113 20.3325 9.07408 20.6047 8.58962 21.0891C8.10517 21.5736 7.833 22.2306 7.833 22.9158C7.833 23.6009 8.10517 24.2579 8.58962 24.7424C9.07408 25.2269 9.73113 25.499 10.4163 25.499H39.5818C40.2669 25.499 40.924 25.2269 41.4084 24.7424C41.8929 24.2579 42.165 23.6009 42.165 22.9158C42.165 22.2306 41.8929 21.5736 41.4084 21.0891C40.924 20.6047 40.2669 20.3325 39.5818 20.3325H32.1112H31.9041L31.7577 20.479L30.8952 21.3414L30.8941 21.3425C30.5549 21.6838 30.1514 21.9544 29.7068 22.1387C29.2623 22.3229 28.7856 22.4171 28.3044 22.4158H28.3031L21.695 22.4158L21.6936 22.4158C21.2124 22.4171 20.7358 22.3229 20.2912 22.1387C19.8467 21.9544 19.4431 21.6838 19.1039 21.3425L19.1028 21.3414L18.2404 20.479ZM23.5638 45.8962C23.9886 46.18 24.4881 46.3315 24.999 46.3315C25.6841 46.3315 26.3412 46.0594 26.8256 45.5749C27.3101 45.0905 27.5823 44.4334 27.5823 43.7483C27.5823 43.2374 27.4308 42.7379 27.1469 42.3131C26.8631 41.8883 26.4596 41.5572 25.9876 41.3617C25.5156 41.1661 24.9961 41.115 24.4951 41.2147C23.9939 41.3143 23.5337 41.5604 23.1724 41.9216C22.8111 42.2829 22.5651 42.7432 22.4654 43.2443C22.3657 43.7454 22.4169 44.2648 22.6124 44.7368C22.8079 45.2089 23.139 45.6123 23.5638 45.8962Z" fill="#EE2B47" stroke="#FEEEF1"/>
</svg>
