<svg width="50" height="46" viewBox="0 0 50 46" fill="none" xmlns="http://www.w3.org/2000/svg">
<path d="M38.238 12.7146L38.0951 13.1937C37.6611 13.0643 37.2653 12.833 36.9439 12.5187C36.6236 12.2055 36.3871 11.8196 36.2573 11.3942C35.1896 8.10521 33.0092 5.24786 30.0564 3.27714C27.102 1.30535 23.5447 0.33513 19.9481 0.522924C16.3515 0.710716 12.9255 2.04552 10.2122 4.31234C7.49923 6.57888 5.6544 9.64685 4.96509 13.0285L4.96481 13.0299C4.25867 16.4442 4.82809 19.9892 6.57531 23.0425L6.83885 23.5031L6.36347 23.7388C4.34788 24.7383 2.71259 26.3173 1.68405 28.2507C0.657624 30.1802 0.285762 32.3676 0.618542 34.5078C1.1392 37.0026 2.53211 39.2562 4.57194 40.8929C6.61435 42.5318 9.18165 43.4527 11.8482 43.4994H16.6694C17.0956 43.4994 17.5004 43.3366 17.7958 43.0529C18.0905 42.7698 18.2522 42.3902 18.2522 41.9989C18.2522 41.6076 18.0905 41.2281 17.7958 40.945C17.5004 40.6613 17.0956 40.4985 16.6694 40.4985H11.8438H11.8346L11.8346 40.4984C9.94889 40.4637 8.12761 39.8214 6.66344 38.6711C5.19892 37.5206 4.17578 35.9278 3.76313 34.146L3.75912 34.1287L3.75635 34.1111C3.51317 32.5701 3.77881 30.9954 4.51419 29.6089C5.24836 28.2247 6.41275 27.0994 7.84105 26.3871C8.68003 25.9399 9.29668 25.1973 9.56505 24.3245C9.83382 23.4505 9.73392 22.5097 9.28478 21.7039L9.28263 21.7001L9.28265 21.7C8.43975 20.156 7.94164 18.4587 7.82116 16.7171C7.70068 14.9755 7.96059 13.2294 8.58372 11.5909C9.20682 9.95249 10.179 8.45876 11.4367 7.20494C12.6944 5.95117 14.2098 4.9649 15.8851 4.30829C17.5604 3.65169 19.3594 3.33892 21.1669 3.38954C22.9744 3.44016 24.7516 3.85309 26.3846 4.60247C28.0175 5.35187 29.4709 6.42153 30.6507 7.74394C31.8303 9.06604 32.7103 10.6116 33.2331 12.2819M38.238 12.7146L33.2335 12.2832C33.2334 12.2828 33.2332 12.2823 33.2331 12.2819M38.238 12.7146L38.098 13.1946C41.6206 14.2218 44.6658 16.3767 46.7289 19.295C48.7916 22.2129 49.7489 25.719 49.4447 29.229L49.4444 29.2323C49.2216 32.0186 48.1601 34.6848 46.3864 36.9059C46.1332 37.2221 45.7555 37.4334 45.3334 37.4864C44.911 37.5395 44.4862 37.4287 44.1531 37.1827C43.8206 36.9373 43.6084 36.5793 43.5555 36.1907C43.5026 35.8027 43.6116 35.4079 43.8639 35.0924C45.2775 33.3375 46.1212 31.2181 46.2862 29.0002C46.5327 26.16 45.7584 23.3262 44.0955 20.9714C42.4326 18.6166 39.9827 16.884 37.157 16.0579M38.238 12.7146L37.157 16.0579M33.2331 12.2819C33.5157 13.1666 34.0196 13.9737 34.7029 14.6322C35.3863 15.2909 36.2285 15.7809 37.157 16.0579M33.2331 12.2819L37.157 16.0579M38.5566 41.1128L38.5563 41.113L35.2532 43.9417L35.2433 43.9501L35.2338 43.9591C34.7156 44.4519 34.0999 44.8424 33.4217 45.1072C32.7435 45.372 32.0168 45.5056 31.2836 45.4998L31.2787 45.4998C30.5159 45.5013 29.7606 45.358 29.0565 45.0788C28.3525 44.7995 27.714 44.39 27.1773 43.8747L27.1668 43.8647L27.1559 43.8553L23.9402 41.1068C23.9402 41.1068 23.9402 41.1068 23.9402 41.1067C23.7855 40.9745 23.6607 40.8153 23.5719 40.639C23.483 40.4627 23.4316 40.2722 23.4199 40.0783C23.3963 39.6876 23.5348 39.3004 23.8112 39.0021C24.0883 38.7031 24.482 38.5181 24.9074 38.4944C25.1176 38.4827 25.3279 38.5109 25.5261 38.5771C25.7239 38.6432 25.9051 38.7456 26.0597 38.8777C26.0599 38.8778 26.0601 38.878 26.0604 38.8782L28.8399 41.266L29.6657 41.9754V40.8867V25.9955C29.6657 25.6042 29.8274 25.2246 30.1221 24.9415C30.4175 24.6578 30.8223 24.495 31.2484 24.495C31.6745 24.495 32.0793 24.6578 32.3748 24.9415C32.6695 25.2246 32.8311 25.6042 32.8311 25.9955V40.8887V41.9762L33.6566 41.2682L36.4365 38.8842C36.7491 38.6169 37.1632 38.4769 37.5883 38.5004C38.0133 38.5238 38.4067 38.7082 38.684 39.0066L39.0461 38.6701L38.6841 39.0067C38.8215 39.1545 38.9262 39.3257 38.9932 39.5102C39.0602 39.6946 39.0885 39.8893 39.077 40.0833C39.0654 40.2774 39.014 40.4681 38.9252 40.6446C38.8364 40.8211 38.7114 40.9804 38.5566 41.1128ZM39.0503 38.6662C39.2326 38.8624 39.3729 39.0911 39.4631 39.3394C39.5534 39.5877 39.5917 39.8506 39.5761 40.1131C39.5604 40.3756 39.491 40.6326 39.3718 40.8694C39.2527 41.1061 39.0861 41.318 38.8816 41.4928L35.5784 44.3214C35.0124 44.8596 34.3413 45.2849 33.6035 45.573C32.8658 45.861 32.076 46.0061 31.2797 45.9998C30.4537 46.0014 29.6356 45.8463 28.8722 45.5436C28.1088 45.2408 27.4151 44.7962 26.831 44.2354L39.0503 38.6662Z" fill="#EE2B47" stroke="white"/>
</svg>
