<svg width="26" height="26" viewBox="0 0 26 26" fill="none" xmlns="http://www.w3.org/2000/svg">
<path d="M24.9157 21.6658H16.05C15.8882 21.2127 15.6278 20.8012 15.2876 20.461C14.9474 20.1208 14.5359 19.8604 14.0828 19.6986V15.1661H20.5825C21.2397 15.1685 21.8821 14.9708 22.4243 14.5994C22.9665 14.2279 23.3828 13.7003 23.6179 13.0866C23.853 12.4729 23.8959 11.8022 23.7407 11.1636C23.5855 10.5249 23.2396 9.94865 22.7491 9.51129V4.33316C22.7491 3.18394 22.2926 2.08178 21.4799 1.26915C20.6673 0.456528 19.5652 0 18.4159 0H7.58303C6.43381 0 5.33165 0.456528 4.51903 1.26915C3.7064 2.08178 3.24987 3.18394 3.24987 4.33316V9.51129C2.75933 9.94865 2.41348 10.5249 2.2583 11.1636C2.10311 11.8022 2.14593 12.4729 2.38106 13.0866C2.6162 13.7003 3.03252 14.2279 3.5747 14.5994C4.11688 14.9708 4.75925 15.1685 5.41645 15.1661H11.9162V19.6986C11.4631 19.8604 11.0516 20.1208 10.7114 20.461C10.3712 20.8012 10.1108 21.2127 9.94894 21.6658H1.08329C0.795984 21.6658 0.520445 21.7799 0.317288 21.9831C0.114132 22.1863 0 22.4618 0 22.7491C0 23.0364 0.114132 23.3119 0.317288 23.5151C0.520445 23.7183 0.795984 23.8324 1.08329 23.8324H9.94894C10.1695 24.4656 10.5817 25.0145 11.1284 25.4029C11.675 25.7913 12.3289 26 12.9995 26C13.67 26 14.324 25.7913 14.8706 25.4029C15.4172 25.0145 15.8294 24.4656 16.05 23.8324H24.9157C25.203 23.8324 25.4785 23.7183 25.6817 23.5151C25.8848 23.3119 25.999 23.0364 25.999 22.7491C25.999 22.4618 25.8848 22.1863 25.6817 21.9831C25.4785 21.7799 25.203 21.6658 24.9157 21.6658ZM5.41645 4.33316C5.41645 3.75855 5.64472 3.20747 6.05103 2.80116C6.45734 2.39485 7.00842 2.16658 7.58303 2.16658H18.4159C18.9906 2.16658 19.5416 2.39485 19.9479 2.80116C20.3543 3.20747 20.5825 3.75855 20.5825 4.33316V8.66632H16.6978C16.4132 8.66555 16.1313 8.72127 15.8683 8.83023C15.6054 8.9392 15.3667 9.09926 15.1661 9.30113L14.7176 9.74961H11.2814L10.8329 9.30113C10.6323 9.09926 10.3936 8.9392 10.1306 8.83023C9.8677 8.72127 9.58575 8.66555 9.30113 8.66632H5.41645V4.33316ZM4.33316 11.9162C4.33316 11.6289 4.44729 11.3534 4.65045 11.1502C4.85361 10.947 5.12915 10.8329 5.41645 10.8329H9.30113L9.74961 11.2814C9.95025 11.4833 10.189 11.6433 10.4519 11.7523C10.7148 11.8613 10.9968 11.917 11.2814 11.9162H14.7176C15.0022 11.917 15.2841 11.8613 15.5471 11.7523C15.81 11.6433 16.0487 11.4833 16.2494 11.2814L16.6978 10.8329H20.5825C20.8698 10.8329 21.1454 10.947 21.3485 11.1502C21.5517 11.3534 21.6658 11.6289 21.6658 11.9162C21.6658 12.2035 21.5517 12.479 21.3485 12.6822C21.1454 12.8854 20.8698 12.9995 20.5825 12.9995H5.41645C5.12915 12.9995 4.85361 12.8854 4.65045 12.6822C4.44729 12.479 4.33316 12.2035 4.33316 11.9162ZM12.9995 23.8324C12.7852 23.8324 12.5758 23.7689 12.3976 23.6498C12.2195 23.5308 12.0806 23.3616 11.9987 23.1637C11.9167 22.9657 11.8952 22.7479 11.937 22.5378C11.9788 22.3276 12.082 22.1346 12.2335 21.9831C12.385 21.8316 12.578 21.7284 12.7881 21.6866C12.9983 21.6448 13.2161 21.6663 13.414 21.7483C13.612 21.8303 13.7812 21.9691 13.9002 22.1473C14.0192 22.3254 14.0828 22.5348 14.0828 22.7491C14.0828 23.0364 13.9686 23.3119 13.7655 23.5151C13.5623 23.7183 13.2868 23.8324 12.9995 23.8324Z" fill="#80818B"/>
<path d="M24.9157 21.6658H16.05C15.8882 21.2127 15.6278 20.8012 15.2876 20.461C14.9474 20.1208 14.5359 19.8604 14.0828 19.6986V15.1661H20.5825C21.2397 15.1685 21.8821 14.9708 22.4243 14.5994C22.9665 14.2279 23.3828 13.7003 23.6179 13.0866C23.853 12.4729 23.8959 11.8022 23.7407 11.1636C23.5855 10.5249 23.2396 9.94865 22.7491 9.51129V4.33316C22.7491 3.18394 22.2926 2.08178 21.4799 1.26915C20.6673 0.456528 19.5652 0 18.4159 0H7.58303C6.43381 0 5.33165 0.456528 4.51903 1.26915C3.7064 2.08178 3.24987 3.18394 3.24987 4.33316V9.51129C2.75933 9.94865 2.41348 10.5249 2.2583 11.1636C2.10311 11.8022 2.14593 12.4729 2.38106 13.0866C2.6162 13.7003 3.03252 14.2279 3.5747 14.5994C4.11688 14.9708 4.75925 15.1685 5.41645 15.1661H11.9162V19.6986C11.4631 19.8604 11.0516 20.1208 10.7114 20.461C10.3712 20.8012 10.1108 21.2127 9.94894 21.6658H1.08329C0.795984 21.6658 0.520445 21.7799 0.317288 21.9831C0.114132 22.1863 0 22.4618 0 22.7491C0 23.0364 0.114132 23.3119 0.317288 23.5151C0.520445 23.7183 0.795984 23.8324 1.08329 23.8324H9.94894C10.1695 24.4656 10.5817 25.0145 11.1284 25.4029C11.675 25.7913 12.3289 26 12.9995 26C13.67 26 14.324 25.7913 14.8706 25.4029C15.4172 25.0145 15.8294 24.4656 16.05 23.8324H24.9157C25.203 23.8324 25.4785 23.7183 25.6817 23.5151C25.8848 23.3119 25.999 23.0364 25.999 22.7491C25.999 22.4618 25.8848 22.1863 25.6817 21.9831C25.4785 21.7799 25.203 21.6658 24.9157 21.6658ZM5.41645 4.33316C5.41645 3.75855 5.64472 3.20747 6.05103 2.80116C6.45734 2.39485 7.00842 2.16658 7.58303 2.16658H18.4159C18.9906 2.16658 19.5416 2.39485 19.9479 2.80116C20.3543 3.20747 20.5825 3.75855 20.5825 4.33316V8.66632H16.6978C16.4132 8.66555 16.1313 8.72127 15.8683 8.83023C15.6054 8.9392 15.3667 9.09926 15.1661 9.30113L14.7176 9.74961H11.2814L10.8329 9.30113C10.6323 9.09926 10.3936 8.9392 10.1306 8.83023C9.8677 8.72127 9.58575 8.66555 9.30113 8.66632H5.41645V4.33316ZM4.33316 11.9162C4.33316 11.6289 4.44729 11.3534 4.65045 11.1502C4.85361 10.947 5.12915 10.8329 5.41645 10.8329H9.30113L9.74961 11.2814C9.95025 11.4833 10.189 11.6433 10.4519 11.7523C10.7148 11.8613 10.9968 11.917 11.2814 11.9162H14.7176C15.0022 11.917 15.2841 11.8613 15.5471 11.7523C15.81 11.6433 16.0487 11.4833 16.2494 11.2814L16.6978 10.8329H20.5825C20.8698 10.8329 21.1454 10.947 21.3485 11.1502C21.5517 11.3534 21.6658 11.6289 21.6658 11.9162C21.6658 12.2035 21.5517 12.479 21.3485 12.6822C21.1454 12.8854 20.8698 12.9995 20.5825 12.9995H5.41645C5.12915 12.9995 4.85361 12.8854 4.65045 12.6822C4.44729 12.479 4.33316 12.2035 4.33316 11.9162ZM12.9995 23.8324C12.7852 23.8324 12.5758 23.7689 12.3976 23.6498C12.2195 23.5308 12.0806 23.3616 11.9987 23.1637C11.9167 22.9657 11.8952 22.7479 11.937 22.5378C11.9788 22.3276 12.082 22.1346 12.2335 21.9831C12.385 21.8316 12.578 21.7284 12.7881 21.6866C12.9983 21.6448 13.2161 21.6663 13.414 21.7483C13.612 21.8303 13.7812 21.9691 13.9002 22.1473C14.0192 22.3254 14.0828 22.5348 14.0828 22.7491C14.0828 23.0364 13.9686 23.3119 13.7655 23.5151C13.5623 23.7183 13.2868 23.8324 12.9995 23.8324Z" stroke="white"/>
</svg>
