<svg width="26" height="26" viewBox="0 0 26 26" fill="none" xmlns="http://www.w3.org/2000/svg">
<path d="M8.66684 0H4.33316C1.94035 0 0 1.94035 0 4.33316V5.41633C0 7.80965 1.94035 9.74949 4.33316 9.74949H5.41633V11.9163H3.24949C2.65129 11.9163 2.16633 12.4013 2.16633 12.9995C2.16633 13.5977 2.65129 14.0827 3.24949 14.0827H9.75C10.3482 14.0827 10.8332 13.5977 10.8332 12.9995C10.8332 12.4013 10.3482 11.9163 9.75 11.9163H7.58316V9.74949H8.66633C11.0596 9.74949 12.9995 7.80914 12.9995 5.41633V4.33316C13 1.94035 11.0596 0 8.66684 0ZM10.8337 5.41684C10.8337 6.61324 9.86375 7.58367 8.66684 7.58367H4.33316C3.13676 7.58367 2.16633 6.61375 2.16633 5.41684V4.33367C2.16633 3.13727 3.13625 2.16684 4.33316 2.16684H8.66633C9.86273 2.16684 10.8332 3.13676 10.8332 4.33367V5.41684H10.8337ZM21.6668 11.9168H19.5C17.1067 11.9168 15.1668 13.8572 15.1668 16.25V21.6668C15.1668 24.0602 17.1072 26 19.5 26H21.6668C24.0602 26 26 24.0596 26 21.6668V16.25C26 13.8567 24.0596 11.9168 21.6668 11.9168ZM23.8337 21.6668C23.8337 22.8632 22.8638 23.8337 21.6668 23.8337H19.5C18.3036 23.8337 17.3332 22.8638 17.3332 21.6668V16.25C17.3332 15.0536 18.3031 14.0832 19.5 14.0832H21.6668C22.8632 14.0832 23.8337 15.0531 23.8337 16.25V21.6668ZM15.1668 4.33316C15.1668 3.73496 15.6518 3.25 16.25 3.25H18.4168C20.212 3.25 21.6668 4.70488 21.6668 6.5V8.66684C21.6668 9.26504 21.1819 9.75 20.5837 9.75C19.9855 9.75 19.5005 9.26504 19.5005 8.66684V6.5C19.5005 5.9018 19.0155 5.41684 18.4173 5.41684H16.2505C15.6523 5.41684 15.1673 4.93187 15.1673 4.33367L15.1668 4.33316ZM13 21.6663C13 22.2645 12.515 22.7495 11.9168 22.7495H8.66684C6.87172 22.7495 5.41684 21.2946 5.41684 19.4995V17.3327C5.41684 16.7345 5.9018 16.2495 6.5 16.2495C7.0982 16.2495 7.58316 16.7345 7.58316 17.3327V19.4995C7.58316 20.0977 8.06812 20.5827 8.66633 20.5827H11.9163C12.5145 20.5827 12.9995 21.0676 12.9995 21.6658L13 21.6663ZM21.6668 21.6663C21.6668 22.2645 21.1819 22.7495 20.5837 22.7495C19.9855 22.7495 19.5005 22.2645 19.5005 21.6663C19.5005 21.0681 19.9855 20.5832 20.5837 20.5832C21.1819 20.5832 21.6668 21.0681 21.6668 21.6663Z" fill="#80818B"/>
<path d="M8.66684 0H4.33316C1.94035 0 0 1.94035 0 4.33316V5.41633C0 7.80965 1.94035 9.74949 4.33316 9.74949H5.41633V11.9163H3.24949C2.65129 11.9163 2.16633 12.4013 2.16633 12.9995C2.16633 13.5977 2.65129 14.0827 3.24949 14.0827H9.75C10.3482 14.0827 10.8332 13.5977 10.8332 12.9995C10.8332 12.4013 10.3482 11.9163 9.75 11.9163H7.58316V9.74949H8.66633C11.0596 9.74949 12.9995 7.80914 12.9995 5.41633V4.33316C13 1.94035 11.0596 0 8.66684 0ZM10.8337 5.41684C10.8337 6.61324 9.86375 7.58367 8.66684 7.58367H4.33316C3.13676 7.58367 2.16633 6.61375 2.16633 5.41684V4.33367C2.16633 3.13727 3.13625 2.16684 4.33316 2.16684H8.66633C9.86273 2.16684 10.8332 3.13676 10.8332 4.33367V5.41684H10.8337ZM21.6668 11.9168H19.5C17.1067 11.9168 15.1668 13.8572 15.1668 16.25V21.6668C15.1668 24.0602 17.1072 26 19.5 26H21.6668C24.0602 26 26 24.0596 26 21.6668V16.25C26 13.8567 24.0596 11.9168 21.6668 11.9168ZM23.8337 21.6668C23.8337 22.8632 22.8638 23.8337 21.6668 23.8337H19.5C18.3036 23.8337 17.3332 22.8638 17.3332 21.6668V16.25C17.3332 15.0536 18.3031 14.0832 19.5 14.0832H21.6668C22.8632 14.0832 23.8337 15.0531 23.8337 16.25V21.6668ZM15.1668 4.33316C15.1668 3.73496 15.6518 3.25 16.25 3.25H18.4168C20.212 3.25 21.6668 4.70488 21.6668 6.5V8.66684C21.6668 9.26504 21.1819 9.75 20.5837 9.75C19.9855 9.75 19.5005 9.26504 19.5005 8.66684V6.5C19.5005 5.9018 19.0155 5.41684 18.4173 5.41684H16.2505C15.6523 5.41684 15.1673 4.93187 15.1673 4.33367L15.1668 4.33316ZM13 21.6663C13 22.2645 12.515 22.7495 11.9168 22.7495H8.66684C6.87172 22.7495 5.41684 21.2946 5.41684 19.4995V17.3327C5.41684 16.7345 5.9018 16.2495 6.5 16.2495C7.0982 16.2495 7.58316 16.7345 7.58316 17.3327V19.4995C7.58316 20.0977 8.06812 20.5827 8.66633 20.5827H11.9163C12.5145 20.5827 12.9995 21.0676 12.9995 21.6658L13 21.6663ZM21.6668 21.6663C21.6668 22.2645 21.1819 22.7495 20.5837 22.7495C19.9855 22.7495 19.5005 22.2645 19.5005 21.6663C19.5005 21.0681 19.9855 20.5832 20.5837 20.5832C21.1819 20.5832 21.6668 21.0681 21.6668 21.6663Z" stroke="white"/>
</svg>
