<svg width="26" height="26" viewBox="0 0 26 26" fill="none" xmlns="http://www.w3.org/2000/svg">
<path d="M25.999 13C25.9964 12.2379 25.8289 11.4862 25.5089 10.8011C25.1889 10.116 24.7247 9.51515 24.151 9.04349C24.9447 8.39057 25.5233 7.49541 25.8061 6.48288C26.0889 5.47035 26.0618 4.39096 25.7286 3.39528C25.3953 2.3996 24.7726 1.53729 23.9472 0.92864C23.1219 0.319994 22.135 -0.00463131 21.1244 4.99255e-05H4.8756C3.86497 -0.00463131 2.87814 0.319994 2.05277 0.92864C1.22741 1.53729 0.604673 2.3996 0.271444 3.39528C-0.0617848 4.39096 -0.0888902 5.47035 0.193909 6.48288C0.476709 7.49541 1.05531 8.39057 1.84899 9.04349C1.27329 9.51327 0.807669 10.1137 0.487439 10.7992C0.167208 11.4847 0.000781664 12.2374 0.000781664 13C0.000781664 13.7626 0.167208 14.5153 0.487439 15.2008C0.807669 15.8863 1.27329 16.4867 1.84899 16.9565C1.05531 17.6094 0.476709 18.5046 0.193909 19.5171C-0.0888902 20.5296 -0.0617848 21.609 0.271444 22.6047C0.604673 23.6004 1.22741 24.4627 2.05277 25.0714C2.87814 25.68 3.86497 26.0046 4.8756 26H21.1244C22.135 26.0046 23.1219 25.68 23.9472 25.0714C24.7726 24.4627 25.3953 23.6004 25.7286 22.6047C26.0618 21.609 26.0889 20.5296 25.8061 19.5171C25.5233 18.5046 24.9447 17.6094 24.151 16.9565C24.7247 16.4848 25.1889 15.884 25.5089 15.1989C25.8289 14.5138 25.9964 13.7621 25.999 13ZM2.16747 5.08699C2.16747 4.33747 2.45279 3.61864 2.96066 3.08865C3.46854 2.55866 4.15736 2.26091 4.8756 2.26091H5.41723V3.39134C5.41723 3.69115 5.53136 3.97868 5.73451 4.19068C5.93766 4.40267 6.21319 4.52177 6.50048 4.52177C6.78778 4.52177 7.06331 4.40267 7.26646 4.19068C7.46961 3.97868 7.58373 3.69115 7.58373 3.39134V2.26091H9.75024V3.39134C9.75024 3.69115 9.86437 3.97868 10.0675 4.19068C10.2707 4.40267 10.5462 4.52177 10.8335 4.52177C11.1208 4.52177 11.3963 4.40267 11.5995 4.19068C11.8026 3.97868 11.9167 3.69115 11.9167 3.39134V2.26091H21.1244C21.8426 2.26091 22.5315 2.55866 23.0393 3.08865C23.5472 3.61864 23.8325 4.33747 23.8325 5.08699C23.8325 5.83651 23.5472 6.55533 23.0393 7.08532C22.5315 7.61532 21.8426 7.91306 21.1244 7.91306H4.8756C4.15736 7.91306 3.46854 7.61532 2.96066 7.08532C2.45279 6.55533 2.16747 5.83651 2.16747 5.08699ZM23.8325 20.913C23.8325 21.6625 23.5472 22.3814 23.0393 22.9114C22.5315 23.4413 21.8426 23.7391 21.1244 23.7391H4.8756C4.15736 23.7391 3.46854 23.4413 2.96066 22.9114C2.45279 22.3814 2.16747 21.6625 2.16747 20.913C2.16747 20.1635 2.45279 19.4447 2.96066 18.9147C3.46854 18.3847 4.15736 18.0869 4.8756 18.0869H5.41723V19.2174C5.41723 19.5172 5.53136 19.8047 5.73451 20.0167C5.93766 20.2287 6.21319 20.3478 6.50048 20.3478C6.78778 20.3478 7.06331 20.2287 7.26646 20.0167C7.46961 19.8047 7.58373 19.5172 7.58373 19.2174V18.0869H9.75024V19.2174C9.75024 19.5172 9.86437 19.8047 10.0675 20.0167C10.2707 20.2287 10.5462 20.3478 10.8335 20.3478C11.1208 20.3478 11.3963 20.2287 11.5995 20.0167C11.8026 19.8047 11.9167 19.5172 11.9167 19.2174V18.0869H21.1244C21.8426 18.0869 22.5315 18.3847 23.0393 18.9147C23.5472 19.4447 23.8325 20.1635 23.8325 20.913ZM4.8756 15.8261C4.15736 15.8261 3.46854 15.5283 2.96066 14.9983C2.45279 14.4683 2.16747 13.7495 2.16747 13C2.16747 12.2505 2.45279 11.5317 2.96066 11.0017C3.46854 10.4717 4.15736 10.1739 4.8756 10.1739H5.41723V11.3044C5.41723 11.6042 5.53136 11.8917 5.73451 12.1037C5.93766 12.3157 6.21319 12.4348 6.50048 12.4348C6.78778 12.4348 7.06331 12.3157 7.26646 12.1037C7.46961 11.8917 7.58373 11.6042 7.58373 11.3044V10.1739H9.75024V11.3044C9.75024 11.6042 9.86437 11.8917 10.0675 12.1037C10.2707 12.3157 10.5462 12.4348 10.8335 12.4348C11.1208 12.4348 11.3963 12.3157 11.5995 12.1037C11.8026 11.8917 11.9167 11.6042 11.9167 11.3044V10.1739H21.1244C21.8426 10.1739 22.5315 10.4717 23.0393 11.0017C23.5472 11.5317 23.8325 12.2505 23.8325 13C23.8325 13.7495 23.5472 14.4683 23.0393 14.9983C22.5315 15.5283 21.8426 15.8261 21.1244 15.8261H4.8756Z" fill="#80818B"/>
<path d="M25.999 13C25.9964 12.2379 25.8289 11.4862 25.5089 10.8011C25.1889 10.116 24.7247 9.51515 24.151 9.04349C24.9447 8.39057 25.5233 7.49541 25.8061 6.48288C26.0889 5.47035 26.0618 4.39096 25.7286 3.39528C25.3953 2.3996 24.7726 1.53729 23.9472 0.92864C23.1219 0.319994 22.135 -0.00463131 21.1244 4.99255e-05H4.8756C3.86497 -0.00463131 2.87814 0.319994 2.05277 0.92864C1.22741 1.53729 0.604673 2.3996 0.271444 3.39528C-0.0617848 4.39096 -0.0888902 5.47035 0.193909 6.48288C0.476709 7.49541 1.05531 8.39057 1.84899 9.04349C1.27329 9.51327 0.807669 10.1137 0.487439 10.7992C0.167208 11.4847 0.000781664 12.2374 0.000781664 13C0.000781664 13.7626 0.167208 14.5153 0.487439 15.2008C0.807669 15.8863 1.27329 16.4867 1.84899 16.9565C1.05531 17.6094 0.476709 18.5046 0.193909 19.5171C-0.0888902 20.5296 -0.0617848 21.609 0.271444 22.6047C0.604673 23.6004 1.22741 24.4627 2.05277 25.0714C2.87814 25.68 3.86497 26.0046 4.8756 26H21.1244C22.135 26.0046 23.1219 25.68 23.9472 25.0714C24.7726 24.4627 25.3953 23.6004 25.7286 22.6047C26.0618 21.609 26.0889 20.5296 25.8061 19.5171C25.5233 18.5046 24.9447 17.6094 24.151 16.9565C24.7247 16.4848 25.1889 15.884 25.5089 15.1989C25.8289 14.5138 25.9964 13.7621 25.999 13ZM2.16747 5.08699C2.16747 4.33747 2.45279 3.61864 2.96066 3.08865C3.46854 2.55866 4.15736 2.26091 4.8756 2.26091H5.41723V3.39134C5.41723 3.69115 5.53136 3.97868 5.73451 4.19068C5.93766 4.40267 6.21319 4.52177 6.50048 4.52177C6.78778 4.52177 7.06331 4.40267 7.26646 4.19068C7.46961 3.97868 7.58373 3.69115 7.58373 3.39134V2.26091H9.75024V3.39134C9.75024 3.69115 9.86437 3.97868 10.0675 4.19068C10.2707 4.40267 10.5462 4.52177 10.8335 4.52177C11.1208 4.52177 11.3963 4.40267 11.5995 4.19068C11.8026 3.97868 11.9167 3.69115 11.9167 3.39134V2.26091H21.1244C21.8426 2.26091 22.5315 2.55866 23.0393 3.08865C23.5472 3.61864 23.8325 4.33747 23.8325 5.08699C23.8325 5.83651 23.5472 6.55533 23.0393 7.08532C22.5315 7.61532 21.8426 7.91306 21.1244 7.91306H4.8756C4.15736 7.91306 3.46854 7.61532 2.96066 7.08532C2.45279 6.55533 2.16747 5.83651 2.16747 5.08699ZM23.8325 20.913C23.8325 21.6625 23.5472 22.3814 23.0393 22.9114C22.5315 23.4413 21.8426 23.7391 21.1244 23.7391H4.8756C4.15736 23.7391 3.46854 23.4413 2.96066 22.9114C2.45279 22.3814 2.16747 21.6625 2.16747 20.913C2.16747 20.1635 2.45279 19.4447 2.96066 18.9147C3.46854 18.3847 4.15736 18.0869 4.8756 18.0869H5.41723V19.2174C5.41723 19.5172 5.53136 19.8047 5.73451 20.0167C5.93766 20.2287 6.21319 20.3478 6.50048 20.3478C6.78778 20.3478 7.06331 20.2287 7.26646 20.0167C7.46961 19.8047 7.58373 19.5172 7.58373 19.2174V18.0869H9.75024V19.2174C9.75024 19.5172 9.86437 19.8047 10.0675 20.0167C10.2707 20.2287 10.5462 20.3478 10.8335 20.3478C11.1208 20.3478 11.3963 20.2287 11.5995 20.0167C11.8026 19.8047 11.9167 19.5172 11.9167 19.2174V18.0869H21.1244C21.8426 18.0869 22.5315 18.3847 23.0393 18.9147C23.5472 19.4447 23.8325 20.1635 23.8325 20.913ZM4.8756 15.8261C4.15736 15.8261 3.46854 15.5283 2.96066 14.9983C2.45279 14.4683 2.16747 13.7495 2.16747 13C2.16747 12.2505 2.45279 11.5317 2.96066 11.0017C3.46854 10.4717 4.15736 10.1739 4.8756 10.1739H5.41723V11.3044C5.41723 11.6042 5.53136 11.8917 5.73451 12.1037C5.93766 12.3157 6.21319 12.4348 6.50048 12.4348C6.78778 12.4348 7.06331 12.3157 7.26646 12.1037C7.46961 11.8917 7.58373 11.6042 7.58373 11.3044V10.1739H9.75024V11.3044C9.75024 11.6042 9.86437 11.8917 10.0675 12.1037C10.2707 12.3157 10.5462 12.4348 10.8335 12.4348C11.1208 12.4348 11.3963 12.3157 11.5995 12.1037C11.8026 11.8917 11.9167 11.6042 11.9167 11.3044V10.1739H21.1244C21.8426 10.1739 22.5315 10.4717 23.0393 11.0017C23.5472 11.5317 23.8325 12.2505 23.8325 13C23.8325 13.7495 23.5472 14.4683 23.0393 14.9983C22.5315 15.5283 21.8426 15.8261 21.1244 15.8261H4.8756Z" stroke="white"/>
</svg>
