<svg width="26" height="24" viewBox="0 0 26 24" fill="none" xmlns="http://www.w3.org/2000/svg">
<path d="M20.3061 20.1737C20.401 20.276 20.4739 20.3954 20.5208 20.5249C20.5677 20.6544 20.5877 20.7916 20.5796 20.9286C20.5714 21.0656 20.5353 21.1996 20.4733 21.3232C20.4114 21.4467 20.3247 21.5572 20.2184 21.6484L18.5008 23.1242C18.2065 23.405 17.8575 23.6269 17.4738 23.7772C17.0902 23.9275 16.6795 24.0032 16.2654 23.9999C15.8359 24.0007 15.4105 23.9198 15.0135 23.7619C14.6166 23.6039 14.2559 23.372 13.9521 23.0794L12.2799 21.6453C12.1737 21.5542 12.0871 21.4437 12.0252 21.3203C11.9632 21.197 11.9271 21.063 11.9188 20.9262C11.9022 20.6498 12.0001 20.3784 12.1911 20.1716C12.3822 19.9648 12.6506 19.8396 12.9374 19.8236C13.0794 19.8156 13.2216 19.8347 13.3559 19.8797C13.4903 19.9248 13.6141 19.9949 13.7204 20.086L15.1662 21.3322V13.5628C15.1662 13.286 15.2803 13.0206 15.4834 12.8248C15.6865 12.6291 15.9619 12.5191 16.2492 12.5191C16.5364 12.5191 16.8119 12.6291 17.015 12.8248C17.2181 13.0206 17.3322 13.286 17.3322 13.5628V21.3332L18.778 20.0891C18.9924 19.9052 19.2737 19.8108 19.5602 19.8267C19.8467 19.8425 20.115 19.9673 20.3061 20.1737ZM19.8838 6.63369C19.6978 6.57804 19.5291 6.47885 19.3926 6.34498C19.2561 6.21111 19.1562 6.04674 19.1018 5.86657C18.5284 4.09236 17.3572 2.55321 15.7737 1.49283C14.1902 0.432451 12.2849 -0.088554 10.3594 0.0123153C8.43403 0.113184 6.59855 0.830163 5.14365 2.04972C3.68875 3.26928 2.69758 4.92171 2.32709 6.74537C1.94694 8.58961 2.25373 10.504 3.1935 12.1518C2.09797 12.6968 1.20715 13.5589 0.646166 14.617C0.0851776 15.675 -0.117794 16.8759 0.0657632 18.0508C0.348051 19.4157 1.10633 20.6466 2.21469 21.5389C3.32304 22.4312 4.71478 22.9314 6.15878 22.9562H8.66811C8.95534 22.9562 9.23081 22.8462 9.43391 22.6505C9.63702 22.4548 9.75112 22.1893 9.75112 21.9125C9.75112 21.6357 9.63702 21.3702 9.43391 21.1745C9.23081 20.9787 8.95534 20.8688 8.66811 20.8688H6.15878C5.23384 20.8517 4.3417 20.5355 3.6256 19.9711C2.90951 19.4067 2.411 18.6267 2.21012 17.7565C2.09252 17.0087 2.22084 16.2442 2.57707 15.5704C2.9333 14.8965 3.49956 14.347 4.19636 13.9991C4.69302 13.7346 5.06161 13.2922 5.22234 12.7677C5.38308 12.2433 5.32303 11.6789 5.05519 11.1968C4.63467 10.4239 4.38642 9.57477 4.32638 8.70397C4.26635 7.83317 4.39584 6.9599 4.70655 6.14016C5.01726 5.32042 5.50234 4.57232 6.13066 3.94385C6.75899 3.31537 7.51668 2.8204 8.35515 2.49069C9.19361 2.16097 10.0943 2.00379 10.9995 2.02922C11.9047 2.05466 12.7944 2.26215 13.6115 2.63839C14.4286 3.01462 15.1551 3.5513 15.7444 4.21398C16.3336 4.87667 16.7727 5.65074 17.0333 6.48653C17.1936 6.99033 17.4791 7.44879 17.8651 7.82203C18.2511 8.19528 18.7258 8.47203 19.248 8.62821C20.6628 9.04308 21.8872 9.91269 22.7173 11.0921C23.5474 12.2715 23.9329 13.6895 23.8097 15.1096C23.7281 16.2139 23.3095 17.2702 22.6064 18.1458C22.4314 18.3653 22.354 18.6428 22.3912 18.9173C22.4285 19.1918 22.5774 19.4408 22.8052 19.6096C23.033 19.7783 23.3209 19.8529 23.6058 19.817C23.8907 19.781 24.149 19.6375 24.3241 19.418C25.2783 18.2192 25.8502 16.7789 25.9703 15.2724C26.1338 13.3788 25.6189 11.4884 24.5113 9.91639C23.4037 8.34436 21.7704 7.18573 19.8838 6.63369Z" fill="#80818B"/>
<path d="M20.3061 20.1737C20.401 20.276 20.4739 20.3954 20.5208 20.5249C20.5677 20.6544 20.5877 20.7916 20.5796 20.9286C20.5714 21.0656 20.5353 21.1996 20.4733 21.3232C20.4114 21.4467 20.3247 21.5572 20.2184 21.6484L18.5008 23.1242C18.2065 23.405 17.8575 23.6269 17.4738 23.7772C17.0902 23.9275 16.6795 24.0032 16.2654 23.9999C15.8359 24.0007 15.4105 23.9198 15.0135 23.7619C14.6166 23.6039 14.2559 23.372 13.9521 23.0794L12.2799 21.6453C12.1737 21.5542 12.0871 21.4437 12.0252 21.3203C11.9632 21.197 11.9271 21.063 11.9188 20.9262C11.9022 20.6498 12.0001 20.3784 12.1911 20.1716C12.3822 19.9648 12.6506 19.8396 12.9374 19.8236C13.0794 19.8156 13.2216 19.8347 13.3559 19.8797C13.4903 19.9248 13.6141 19.9949 13.7204 20.086L15.1662 21.3322V13.5628C15.1662 13.286 15.2803 13.0206 15.4834 12.8248C15.6865 12.6291 15.9619 12.5191 16.2492 12.5191C16.5364 12.5191 16.8119 12.6291 17.015 12.8248C17.2181 13.0206 17.3322 13.286 17.3322 13.5628V21.3332L18.778 20.0891C18.9924 19.9052 19.2737 19.8108 19.5602 19.8267C19.8467 19.8425 20.115 19.9673 20.3061 20.1737ZM19.8838 6.63369C19.6978 6.57804 19.5291 6.47885 19.3926 6.34498C19.2561 6.21111 19.1562 6.04674 19.1018 5.86657C18.5284 4.09236 17.3572 2.55321 15.7737 1.49283C14.1902 0.432451 12.2849 -0.088554 10.3594 0.0123153C8.43403 0.113184 6.59855 0.830163 5.14365 2.04972C3.68875 3.26928 2.69758 4.92171 2.32709 6.74537C1.94694 8.58961 2.25373 10.504 3.1935 12.1518C2.09797 12.6968 1.20715 13.5589 0.646166 14.617C0.0851776 15.675 -0.117794 16.8759 0.0657632 18.0508C0.348051 19.4157 1.10633 20.6466 2.21469 21.5389C3.32304 22.4312 4.71478 22.9314 6.15878 22.9562H8.66811C8.95534 22.9562 9.23081 22.8462 9.43391 22.6505C9.63702 22.4548 9.75112 22.1893 9.75112 21.9125C9.75112 21.6357 9.63702 21.3702 9.43391 21.1745C9.23081 20.9787 8.95534 20.8688 8.66811 20.8688H6.15878C5.23384 20.8517 4.3417 20.5355 3.6256 19.9711C2.90951 19.4067 2.411 18.6267 2.21012 17.7565C2.09252 17.0087 2.22084 16.2442 2.57707 15.5704C2.9333 14.8965 3.49956 14.347 4.19636 13.9991C4.69302 13.7346 5.06161 13.2922 5.22234 12.7677C5.38308 12.2433 5.32303 11.6789 5.05519 11.1968C4.63467 10.4239 4.38642 9.57477 4.32638 8.70397C4.26635 7.83317 4.39584 6.9599 4.70655 6.14016C5.01726 5.32042 5.50234 4.57232 6.13066 3.94385C6.75899 3.31537 7.51668 2.8204 8.35515 2.49069C9.19361 2.16097 10.0943 2.00379 10.9995 2.02922C11.9047 2.05466 12.7944 2.26215 13.6115 2.63839C14.4286 3.01462 15.1551 3.5513 15.7444 4.21398C16.3336 4.87667 16.7727 5.65074 17.0333 6.48653C17.1936 6.99033 17.4791 7.44879 17.8651 7.82203C18.2511 8.19528 18.7258 8.47203 19.248 8.62821C20.6628 9.04308 21.8872 9.91269 22.7173 11.0921C23.5474 12.2715 23.9329 13.6895 23.8097 15.1096C23.7281 16.2139 23.3095 17.2702 22.6064 18.1458C22.4314 18.3653 22.354 18.6428 22.3912 18.9173C22.4285 19.1918 22.5774 19.4408 22.8052 19.6096C23.033 19.7783 23.3209 19.8529 23.6058 19.817C23.8907 19.781 24.149 19.6375 24.3241 19.418C25.2783 18.2192 25.8502 16.7789 25.9703 15.2724C26.1338 13.3788 25.6189 11.4884 24.5113 9.91639C23.4037 8.34436 21.7704 7.18573 19.8838 6.63369Z" stroke="white"/>
</svg>
