<svg width="14" height="17" viewBox="0 0 14 17" fill="none" xmlns="http://www.w3.org/2000/svg">
<g opacity="0.8">
<path d="M13 6.83143C13 11.5005 7 15.5025 7 15.5025C7 15.5025 1 11.5005 1 6.83143C1 5.23932 1.63214 3.71241 2.75736 2.58662C3.88258 1.46083 5.4087 0.828369 7 0.828369C8.5913 0.828369 10.1174 1.46083 11.2426 2.58662C12.3679 3.71241 13 5.23932 13 6.83143Z" stroke="white" stroke-width="1.5" stroke-linecap="round" stroke-linejoin="round"/>
<path d="M7 8.83287C8.10457 8.83287 9 7.93687 9 6.8316C9 5.72632 8.10457 4.83032 7 4.83032C5.89543 4.83032 5 5.72632 5 6.8316C5 7.93687 5.89543 8.83287 7 8.83287Z" stroke="white" stroke-width="1.5" stroke-linecap="round" stroke-linejoin="round"/>
</g>
</svg>
