<svg width="17" height="16" viewBox="0 0 17 16" fill="none" xmlns="http://www.w3.org/2000/svg">
<path d="M3.04572 15.0001C2.66916 15.0001 2.3639 14.7016 2.3639 14.3334C2.3639 13.9652 2.66916 13.6667 3.04572 13.6667C3.42228 13.6667 3.72754 13.9652 3.72754 14.3334C3.72754 14.7016 3.42228 15.0001 3.04572 15.0001Z" stroke="#2C2D3D" stroke-width="1.5" stroke-linecap="round" stroke-linejoin="round"/>
<path d="M10.5457 15.0001C10.1692 15.0001 9.8639 14.7016 9.8639 14.3334C9.8639 13.9652 10.1692 13.6667 10.5457 13.6667C10.9223 13.6667 11.2275 13.9652 11.2275 14.3334C11.2275 14.7016 10.9223 15.0001 10.5457 15.0001Z" stroke="#2C2D3D" stroke-width="1.5" stroke-linecap="round" stroke-linejoin="round"/>
<path d="M16 1H13.2727L11.4455 9.92667C11.3831 10.2336 11.2123 10.5093 10.963 10.7055C10.7137 10.9018 10.4018 11.006 10.0818 11H3.45455C3.13457 11.006 2.82262 10.9018 2.57333 10.7055C2.32403 10.5093 2.15326 10.2336 2.09091 9.92667L1 4.33333H12.5909" stroke="#2C2D3D" stroke-width="1.5" stroke-linecap="round" stroke-linejoin="round"/>
</svg>
