<svg width="60" height="60" viewBox="0 0 60 60" fill="none" xmlns="http://www.w3.org/2000/svg">
<path d="M22.4412 18.2141L23 18.2803V17.7176V11.25C23 8.3362 24.902 5.66111 28.1891 3.6886C31.47 1.71979 36.0645 0.5 41.25 0.5C46.4355 0.5 51.03 1.71979 54.3109 3.6886C57.598 5.66111 59.5 8.3362 59.5 11.25V41.25C59.5 44.1638 57.598 46.8389 54.3109 48.8114C51.03 50.7802 46.4355 52 41.25 52C39.7087 52 38.193 51.8926 36.7225 51.6783L36.3693 51.6268L36.2058 51.9442C35.0944 54.103 32.856 55.9942 29.8061 57.3487C26.7625 58.7005 22.9479 59.5 18.75 59.5C13.5645 59.5 8.96998 58.2802 5.68906 56.3114C2.40197 54.3389 0.5 51.6638 0.5 48.75V28.7496C0.5 25.8358 2.40197 23.1607 5.68906 21.1882C8.96998 19.2194 13.5645 17.9996 18.75 17.9996C20.0186 17.9996 21.254 18.0735 22.4412 18.2141ZM37 37.2422V37.6771L37.4308 37.7374C38.6693 37.9105 39.9475 38 41.25 38C45.2496 38 48.7635 37.1622 51.2945 35.9309C52.559 35.3158 53.596 34.5937 54.3238 33.812C55.0488 33.0333 55.4996 32.158 55.4996 31.2504V31.2492V28.9723V28.0572L54.7295 28.5515C51.4268 30.6714 46.6611 31.9996 41.25 31.9996C39.9993 31.9996 38.7636 31.9258 37.558 31.785L37 31.7199V32.2816V37.2422ZM5.27047 36.0515L4.50039 35.5572V36.4723V38.7492C4.50039 39.6569 4.95121 40.5321 5.67623 41.3108C6.40403 42.0925 7.44102 42.8146 8.70554 43.4297C11.2365 44.661 14.7504 45.4988 18.75 45.4988C22.7496 45.4988 26.2635 44.661 28.7945 43.4297C30.059 42.8146 31.096 42.0925 31.8238 41.3108C32.5488 40.5321 32.9996 39.6569 32.9996 38.7492V36.4723V35.5572L32.2295 36.0515C28.9268 38.1713 24.16 39.4996 18.75 39.4996C13.34 39.4996 8.57322 38.1713 5.27047 36.0515ZM36.8462 27.3255L36.9199 27.6638L37.2624 27.7139C38.5527 27.9026 39.8894 27.9992 41.25 27.9992C45.2496 27.9992 48.7635 27.1614 51.2945 25.9301C52.559 25.315 53.596 24.5929 54.3238 23.8112C55.0488 23.0325 55.4996 22.1572 55.4996 21.2496V21.2484V18.9715V18.0564L54.7295 18.5507C51.4268 20.6706 46.6611 21.9988 41.25 21.9988C38.3435 21.9988 35.6194 21.6165 33.2071 20.9304L32.7821 21.8199C34.9766 23.3681 36.3975 25.2647 36.8462 27.3255ZM5.27047 46.0523L4.50039 45.558V46.473V48.75C4.50039 49.6576 4.95111 50.5329 5.67604 51.3116C6.40375 52.0932 7.44063 52.8154 8.70509 53.4305C11.2359 54.6618 14.7498 55.4996 18.75 55.4996C22.7496 55.4996 26.2635 54.6618 28.7945 53.4305C30.059 52.8154 31.096 52.0933 31.8238 51.3116C32.5488 50.5329 32.9996 49.6576 32.9996 48.75V46.473V45.558L32.2295 46.0523C28.9268 48.1721 24.16 49.5004 18.75 49.5004C13.34 49.5004 8.57322 48.1721 5.27047 46.0523ZM41.25 47.9996H41.75V47.9941C45.5423 47.9276 48.8695 47.109 51.2945 45.9294C52.559 45.3142 53.596 44.5921 54.3238 43.8104C55.0488 43.0317 55.4996 42.1565 55.4996 41.2488V38.9719V38.0568L54.7295 38.5511C51.4268 40.671 46.6611 41.9992 41.25 41.9992C39.9993 41.9992 38.7636 41.9254 37.558 41.7846L37 41.7195V42.2812V47.2418V47.6768L37.4308 47.737C38.6693 47.9102 39.9475 47.9996 41.25 47.9996ZM55.4996 11.25C55.4996 10.3424 55.0489 9.46714 54.324 8.68844C53.5962 7.90675 52.5594 7.18465 51.2949 6.56948C48.7641 5.33822 45.2502 4.50039 41.25 4.50039C37.2504 4.50039 33.7365 5.33823 31.2055 6.56947C29.941 7.18464 28.904 7.90674 28.1762 8.68842C27.4512 9.4671 27.0004 10.3424 27.0004 11.25C27.0004 12.1576 27.4512 13.0329 28.1762 13.8116C28.904 14.5933 29.941 15.3154 31.2055 15.9305C33.7365 17.1618 37.2504 17.9996 41.25 17.9996C45.2496 17.9996 48.7635 17.1618 51.2945 15.9305C52.559 15.3154 53.596 14.5933 54.3238 13.8116C55.0488 13.0329 55.4996 12.1576 55.4996 11.25ZM32.9996 28.7496C32.9996 27.842 32.5489 26.9668 31.824 26.188C31.0962 25.4064 30.0594 24.6843 28.7949 24.0691C26.2641 22.8378 22.7502 22 18.75 22C14.7504 22 11.2365 22.8378 8.70554 24.0691C7.44102 24.6842 6.40403 25.4063 5.67623 26.188C4.95122 26.9667 4.50039 27.842 4.50039 28.7496C4.50039 29.6572 4.95121 30.5325 5.67623 31.3112C6.40403 32.0929 7.44102 32.815 8.70554 33.4301C11.2365 34.6614 14.7504 35.4992 18.75 35.4992C22.7496 35.4992 26.2635 34.6614 28.7945 33.4301C30.059 32.815 31.096 32.0929 31.8238 31.3112C32.5488 30.5325 32.9996 29.6572 32.9996 28.7496Z" fill="#EE2B47" stroke="white"/>
</svg>
