<svg width="148" height="26" viewBox="0 0 148 26" fill="none" xmlns="http://www.w3.org/2000/svg">
<path d="M37.2169 12.1359V19.0196H34.3984V6.98047H36.631L42.2829 14.0681V6.98047H45.1013V19.0196H42.7984L37.2148 12.1359H37.2169Z" fill="white"/>
<path d="M50.5141 6.98047H53.5562L57.7488 19.0196H54.8621L54.0356 16.3242H50.0199L49.1933 19.0196H46.3066L50.5162 6.98047H50.5141ZM53.4455 14.4066L52.0245 9.77685L50.6036 14.4066H53.4433H53.4455Z" fill="white"/>
<path d="M61.9563 6.99719H64.5511L65.8229 10.8469L67.0947 6.99719H69.7065L67.6273 12.5921L68.8651 15.7963L71.9242 6.97827H75.0005L70.2413 19.0174H67.802L65.8272 14.3035L63.8694 19.0174H61.4131L56.6709 6.97827H59.7301L62.8063 15.7963L64.01 12.5921L61.9648 6.99719H61.9563Z" fill="white"/>
<path d="M78.1236 6.98047H81.1637L85.3562 19.0196H82.4696L81.643 16.3242H77.6273L76.8007 19.0196H73.9141L78.1236 6.98047ZM81.055 14.4066L79.6341 9.77685L78.2131 14.4066H81.0529H81.055Z" fill="white"/>
<path d="M96.6456 15.9331C96.6456 16.6227 96.4603 17.1967 96.0875 17.6551C95.7147 18.1134 95.214 18.454 94.5835 18.6811C93.9529 18.9082 93.2605 19.0196 92.5042 19.0196H86.5605V6.98047H93.3479C93.9209 6.98047 94.4152 7.12975 94.8348 7.43041C95.2524 7.73108 95.5741 8.11794 95.7978 8.59101C96.0214 9.06409 96.1322 9.55818 96.1322 10.067C96.1322 10.6326 95.9831 11.1729 95.6849 11.686C95.3866 12.2011 94.952 12.5879 94.3789 12.8466C95.0777 13.0505 95.6295 13.4121 96.0364 13.9315C96.4433 14.4508 96.6456 15.1194 96.6456 15.9331ZM89.379 9.35424V11.8478H92.1442C92.3508 11.8478 92.5426 11.8037 92.7194 11.7112C92.8962 11.6208 93.0432 11.482 93.1583 11.2949C93.2733 11.1078 93.3308 10.8744 93.3308 10.5905C93.3308 10.3067 93.2818 10.0922 93.186 9.91141C93.088 9.73059 92.9601 9.59182 92.7982 9.49511C92.6384 9.39839 92.4552 9.35003 92.2486 9.35003H89.379V9.35424ZM93.7782 15.3738C93.7782 15.1131 93.7271 14.8839 93.6227 14.6863C93.5204 14.4886 93.3841 14.3309 93.22 14.2111C93.0539 14.0934 92.8557 14.0324 92.6278 14.0324H89.3811V16.6606H92.5085C92.7492 16.6606 92.9644 16.6038 93.1519 16.4903C93.3415 16.3767 93.4927 16.2253 93.6078 16.0319C93.7228 15.8406 93.7803 15.6198 93.7803 15.3696L93.7782 15.3738Z" fill="white"/>
<path d="M112.813 6.98047V19.0196H109.994V14.0849H105.133V19.0196H102.314V6.98047H105.133V11.6439H109.994V6.98047H112.813Z" fill="#EE2B47"/>
<path d="M120.492 19.1037C119.576 19.1037 118.748 18.9313 118.011 18.5865C117.271 18.2417 116.636 17.7791 116.104 17.1967C115.571 16.6143 115.162 15.9583 114.875 15.2288C114.587 14.4992 114.444 13.7444 114.444 12.9643C114.444 12.1843 114.596 11.3979 114.9 10.6747C115.203 9.95138 115.627 9.3038 116.172 8.73401C116.715 8.16422 117.361 7.71428 118.104 7.38628C118.848 7.05829 119.662 6.89429 120.544 6.89429C121.426 6.89429 122.271 7.0667 123.008 7.41151C123.748 7.75633 124.382 8.22309 124.915 8.8097C125.448 9.39841 125.857 10.0565 126.144 10.7861C126.43 11.5157 126.575 12.2579 126.575 13.0169C126.575 13.8201 126.425 14.5833 126.127 15.3065C125.829 16.0298 125.405 16.6774 124.855 17.2472C124.306 17.8191 123.662 18.2711 122.923 18.6033C122.184 18.9376 121.374 19.1037 120.492 19.1037ZM117.314 13.0001C117.314 13.4647 117.382 13.9126 117.521 14.3478C117.659 14.783 117.861 15.1699 118.13 15.5084C118.398 15.8469 118.735 16.1181 119.135 16.3221C119.536 16.526 119.994 16.6269 120.509 16.6269C121.025 16.6269 121.517 16.5218 121.918 16.3137C122.318 16.1055 122.65 15.8238 122.915 15.4747C123.179 15.1236 123.375 14.7326 123.507 14.2973C123.639 13.8621 123.705 13.4185 123.705 12.9664C123.705 12.5144 123.637 12.056 123.498 11.6271C123.36 11.1982 123.155 10.8113 122.881 10.4665C122.606 10.1217 122.267 9.85256 121.866 9.66123C121.466 9.4699 121.014 9.37318 120.509 9.37318C119.97 9.37318 119.504 9.4741 119.11 9.67805C118.716 9.88199 118.383 10.1553 118.113 10.5001C117.844 10.845 117.642 11.236 117.512 11.6692C117.38 12.1044 117.314 12.548 117.314 13.0001Z" fill="#EE2B47"/>
<path d="M135.457 10.5253C135.423 10.4685 135.301 10.3802 135.097 10.2625C134.89 10.1447 134.632 10.0165 134.323 9.8819C134.015 9.74524 133.676 9.62749 133.309 9.52657C132.943 9.42565 132.577 9.37309 132.21 9.37309C131.729 9.37309 131.356 9.45509 131.094 9.61698C130.83 9.77888 130.698 10.0291 130.698 10.3655C130.698 10.6346 130.798 10.8491 130.998 11.0047C131.198 11.1623 131.488 11.299 131.865 11.4168C132.242 11.5345 132.706 11.6712 133.256 11.8289C134.036 12.0307 134.711 12.2746 135.284 12.5605C135.857 12.8465 136.294 13.2144 136.599 13.6644C136.901 14.1143 137.055 14.7093 137.055 15.4494C137.055 16.1222 136.929 16.6941 136.677 17.1588C136.426 17.6256 136.085 17.9998 135.655 18.2879C135.225 18.5738 134.737 18.7819 134.185 18.9102C133.633 19.0385 133.069 19.1036 132.485 19.1036C131.901 19.1036 131.279 19.0448 130.655 18.9249C130.031 18.8072 129.432 18.6369 128.859 18.4161C128.286 18.1953 127.76 17.9283 127.278 17.6108L128.516 15.1866C128.561 15.2434 128.71 15.3485 128.963 15.4999C129.215 15.6534 129.528 15.8111 129.901 15.9751C130.274 16.1391 130.689 16.2841 131.147 16.4082C131.605 16.5322 132.069 16.5953 132.538 16.5953C133.041 16.5953 133.418 16.5175 133.663 16.3619C133.91 16.2063 134.032 15.9919 134.032 15.7143C134.032 15.4116 133.904 15.174 133.646 15.0058C133.388 14.8376 133.039 14.6862 132.598 14.5516C132.157 14.4171 131.65 14.2657 131.077 14.0954C130.333 13.8704 129.715 13.6181 129.23 13.3364C128.742 13.0546 128.382 12.7119 128.148 12.3082C127.913 11.9024 127.796 11.3978 127.796 10.7902C127.796 9.94708 127.998 9.23642 128.405 8.65612C128.812 8.07792 129.36 7.63849 130.046 7.33993C130.734 7.04137 131.484 6.89209 132.297 6.89209C132.871 6.89209 133.422 6.95937 133.955 7.09604C134.487 7.2327 134.986 7.4009 135.45 7.60485C135.915 7.8088 136.33 8.01274 136.697 8.21459L135.459 10.5211L135.457 10.5253Z" fill="#EE2B47"/>
<path d="M148 9.42152H144.289V19.0196H141.47V9.42152H137.742V6.98047H148V9.42152Z" fill="#EE2B47"/>
<path d="M19.3476 4.93256H21.3458V11.3032V14.7556V21.0674H16.3501V14.7556H9.99316V21.0674V26H26.3436V0H19.3476V4.93256Z" fill="#EE2B47"/>
<path d="M4.99781 21.0674V14.7556V11.3032V4.93256H9.99349V11.3032H16.3505V4.93256V0H0V26H6.99608V21.0674H4.99781Z" fill="white"/>
</svg>
