<svg width="16" height="16" viewBox="0 0 16 16" fill="none" xmlns="http://www.w3.org/2000/svg">
<path d="M5.99967 14.6666H9.99967C13.333 14.6666 14.6663 13.3333 14.6663 9.99998V5.99998C14.6663 2.66665 13.333 1.33331 9.99967 1.33331H5.99967C2.66634 1.33331 1.33301 2.66665 1.33301 5.99998V9.99998C1.33301 13.3333 2.66634 14.6666 5.99967 14.6666Z" stroke="#80818B" stroke-width="1.5" stroke-linecap="round" stroke-linejoin="round"/>
<path d="M6.00033 6.66667C6.73671 6.66667 7.33366 6.06971 7.33366 5.33333C7.33366 4.59695 6.73671 4 6.00033 4C5.26395 4 4.66699 4.59695 4.66699 5.33333C4.66699 6.06971 5.26395 6.66667 6.00033 6.66667Z" stroke="#80818B" stroke-width="1.5" stroke-linecap="round" stroke-linejoin="round"/>
<path d="M1.78027 12.6334L5.06694 10.4267C5.59361 10.0734 6.35361 10.1134 6.82694 10.52L7.04694 10.7134C7.56694 11.16 8.40694 11.16 8.92694 10.7134L11.7003 8.33335C12.2203 7.88669 13.0603 7.88669 13.5803 8.33335L14.6669 9.26669" stroke="#80818B" stroke-width="1.5" stroke-linecap="round" stroke-linejoin="round"/>
</svg>
