<svg width="22" height="22" viewBox="0 0 22 22" fill="none" xmlns="http://www.w3.org/2000/svg">
<path d="M19.8002 7.46896V11.869C19.8002 12.155 19.7892 12.43 19.7561 12.694C19.5028 15.664 17.7516 17.1379 14.5246 17.1379H14.0841C13.8087 17.1379 13.5444 17.2699 13.3792 17.4899L12.0575 19.25C11.4738 20.031 10.5266 20.031 9.94287 19.25L8.6212 17.4899C8.47802 17.3029 8.15864 17.1379 7.91634 17.1379H7.4758C3.96241 17.1379 2.2002 16.269 2.2002 11.869V7.46896C2.2002 4.24596 3.68706 2.49696 6.64976 2.24396C6.91409 2.21096 7.18944 2.19995 7.4758 2.19995H14.5246C18.038 2.19995 19.8002 3.95996 19.8002 7.46896Z" stroke="white" stroke-width="1.5" stroke-miterlimit="10" stroke-linecap="round" stroke-linejoin="round"/>
<path d="M14.8449 10.175H14.8548" stroke="white" stroke-width="2" stroke-linecap="round" stroke-linejoin="round"/>
<path d="M10.9952 10.175H11.0051" stroke="white" stroke-width="2" stroke-linecap="round" stroke-linejoin="round"/>
<path d="M7.14466 10.175H7.15456" stroke="white" stroke-width="2" stroke-linecap="round" stroke-linejoin="round"/>
</svg>
