<svg width="129" height="40" viewBox="0 0 129 40" fill="none" xmlns="http://www.w3.org/2000/svg">
<path d="M24.4163 30.8464C24.6173 33.2232 23.8083 35.6704 21.9993 37.4995C20.1853 39.3286 17.7482 40.1527 15.3664 39.9768C15.1654 37.6 15.9744 35.1528 17.7834 33.3237C19.5974 31.4947 22.0345 30.6706 24.4163 30.8464Z" fill="#80818B"/>
<path d="M20.1049 27.5449C17.7281 30.0825 14.3011 31.6051 10.5525 31.4342C6.80887 31.2634 3.52756 29.4343 1.39697 26.6907C3.77378 24.1531 7.20081 22.6305 10.9494 22.8013C14.693 22.9722 17.9744 24.8013 20.1049 27.5449Z" fill="#80818B"/>
<path d="M0 19.3694C0.497472 13.4249 3.49738 7.72155 8.72335 3.9679C13.9493 0.214246 20.3109 -0.810848 26.1047 0.616243C25.6073 6.56078 22.6073 12.2641 17.3814 16.0178C12.1554 19.7714 5.79379 20.7965 0 19.3694Z" fill="#80818B"/>
<path d="M96.3387 12.078V15.701H98.5095V34.6351H102.374V15.696H107.444V12.073H102.374V8.3696C102.374 7.30933 102.469 6.45508 102.665 5.81189C102.856 5.16869 103.117 4.71644 103.439 4.46017C103.796 4.16872 104.213 4.02802 104.695 4.02802C105.082 4.02802 105.484 4.10842 105.901 4.26922C106.354 4.39987 106.74 4.73654 107.062 5.28426L109.188 2.09843C108.961 1.77683 108.64 1.47031 108.223 1.17886C107.836 0.887414 107.369 0.646216 106.821 0.455267C106.273 0.264318 105.645 0.163818 104.936 0.163818C103.585 0.163818 102.424 0.455267 101.459 1.03314C100.525 1.58086 99.8009 2.41501 99.2884 3.54562C98.7759 4.67122 98.5146 6.11841 98.5146 7.89222V12.083H96.3438L96.3387 12.078Z" fill="#80818B"/>
<path d="M35.6773 4.69629V34.6351H53.0587V30.7709H39.7827V4.69629H35.6773Z" fill="#80818B"/>
<path fill-rule="evenodd" clip-rule="evenodd" d="M63.3548 35.1126C65.7366 35.1126 67.7969 34.6452 69.5355 33.7106C71.3043 32.7458 72.7716 31.3288 73.9273 29.4595L70.7867 27.4796C69.9827 28.8313 68.9979 29.8464 67.8421 30.5197C66.6813 31.1629 65.3497 31.4845 63.8322 31.4845C62.3146 31.4845 61.0333 31.1629 59.968 30.5197C58.9077 29.8765 58.0987 28.9419 57.551 27.7208C57.1339 26.7912 56.8776 25.7108 56.7771 24.4847H74.259V24.0526C74.2891 23.7963 74.3093 23.5551 74.3093 23.329C74.3093 20.9773 73.8922 18.9523 73.053 17.2438C72.2138 15.5353 71.0078 14.2338 69.43 13.3343C67.8873 12.3997 66.018 11.9324 63.8272 11.9324C61.6363 11.9324 59.7067 12.4148 58.0334 13.3796C56.3902 14.3444 55.1038 15.6961 54.1692 17.4347C53.2697 19.1734 52.8174 21.2034 52.8174 23.52C52.8174 25.8365 53.2496 27.8163 54.1239 29.5549C55.0234 31.2936 56.2646 32.6604 57.8424 33.6603C59.4504 34.6251 61.2845 35.1075 63.3448 35.1075L63.3548 35.1126ZM57.6113 18.9874C57.3047 19.6407 57.0736 20.3793 56.9329 21.2085H70.0983C70.0229 20.1482 69.7566 19.2186 69.2994 18.4096C68.7818 17.4448 68.0582 16.686 67.1286 16.1383C66.1939 15.5906 65.0985 15.3192 63.8473 15.3192C62.3649 15.3192 61.0936 15.6408 60.0333 16.284C59.0032 16.897 58.1992 17.7965 57.6213 18.9874H57.6113Z" fill="#80818B"/>
<path fill-rule="evenodd" clip-rule="evenodd" d="M90.0375 22.4549C89.4294 22.0579 88.6556 21.7061 87.721 21.4046C86.6607 21.0177 85.324 20.8268 83.711 20.8268C80.9724 20.8268 78.8318 21.485 77.2891 22.8066C75.7766 24.093 75.0178 25.8166 75.0178 27.9723C75.0178 29.4848 75.3696 30.7712 76.0781 31.8365C76.7866 32.8968 77.7213 33.7209 78.877 34.2987C80.0679 34.8464 81.3392 35.1178 82.691 35.1178C83.912 35.1178 85.1381 34.8917 86.3592 34.4394C87.6154 33.9872 88.6606 33.2988 89.4998 32.3641C89.7008 32.148 89.8767 31.9219 90.0324 31.6807V34.6354H93.8966V18.7012C93.8966 17.254 93.5248 16.0279 92.7861 15.033C92.0776 14.033 91.0626 13.2793 89.746 12.7617C88.4596 12.214 86.9471 11.9426 85.2085 11.9426C83.1482 11.9426 81.3794 12.2492 79.8971 12.8622C78.4499 13.4752 77.3042 14.0833 76.47 14.6963L78.3544 17.5455C78.7062 17.2892 79.1936 16.9827 79.8016 16.6259C80.4146 16.2742 81.1533 15.9676 82.0226 15.7063C82.9221 15.4501 83.9221 15.3194 85.0175 15.3194C85.6959 15.3194 86.3391 15.3847 86.9471 15.5104C87.5602 15.641 88.0878 15.847 88.54 16.1385C89.0224 16.4299 89.3943 16.8319 89.6505 17.3445C89.9068 17.8269 90.0375 18.455 90.0375 19.2288V22.4549ZM79.5101 25.701C79.1232 26.2789 78.9323 26.9723 78.9323 27.7763C78.9323 28.5803 79.1232 29.3391 79.5101 29.9471C79.9272 30.5601 80.49 31.0275 81.1985 31.3491C81.9372 31.6405 82.7764 31.7812 83.711 31.7812C84.9019 31.7812 85.9622 31.54 86.8969 31.0576C87.8617 30.5752 88.6204 29.8969 89.1681 29.0275C89.746 28.1281 90.0375 27.0979 90.0375 25.9372V25.103C89.4194 24.8015 88.7913 24.5654 88.1531 24.3945C86.9622 24.0428 85.6909 23.8619 84.3391 23.8619C83.0829 23.8619 82.0528 24.0227 81.2488 24.3443C80.4749 24.6659 79.8971 25.1181 79.5101 25.696V25.701Z" fill="#80818B"/>
<path fill-rule="evenodd" clip-rule="evenodd" d="M124.207 33.7158C122.469 34.6505 120.408 35.1178 118.027 35.1178C115.966 35.1178 114.132 34.6354 112.519 33.6706C110.941 32.6706 109.705 31.3038 108.801 29.5652C107.931 27.8266 107.499 25.8166 107.499 23.5302C107.499 21.2438 107.951 19.1836 108.851 17.445C109.786 15.7063 111.072 14.3546 112.715 13.3898C114.388 12.425 116.323 11.9426 118.509 11.9426C120.695 11.9426 122.564 12.4099 124.112 13.3446C125.69 14.2441 126.896 15.5506 127.735 17.254C128.574 18.9625 128.991 20.9876 128.991 23.3393C128.991 23.5654 128.976 23.8066 128.941 24.0629V24.495H111.459C111.559 25.7211 111.816 26.8015 112.233 27.7311C112.78 28.9522 113.584 29.8868 114.645 30.53C115.705 31.1732 116.996 31.4948 118.509 31.4948C120.021 31.4948 121.358 31.1732 122.519 30.53C123.68 29.8516 124.659 28.8416 125.463 27.4899L128.604 29.4697C127.443 31.339 125.981 32.751 124.207 33.7209V33.7158ZM111.6 21.2087C111.745 20.3796 111.971 19.6409 112.278 18.9876C112.856 17.7967 113.66 16.8972 114.69 16.2842C115.75 15.641 117.027 15.3194 118.504 15.3194C119.76 15.3194 120.856 15.5908 121.785 16.1385C122.72 16.6862 123.443 17.4399 123.956 18.4098C124.413 19.2188 124.68 20.1534 124.755 21.2087H111.59H111.6Z" fill="#80818B"/>
</svg>
