<svg width="198" height="40" viewBox="0 0 198 40" fill="none" xmlns="http://www.w3.org/2000/svg">
<path d="M79.4023 32.993C78.8552 32.524 78.5425 32.0321 78.5103 31.5171L79.4023 32.993ZM79.4023 32.993C79.9954 33.4803 80.8368 33.7148 81.8943 33.7148H84.3678V33.1033H83.0483L82.6437 33.0298H82.6345H82.6253C82.3862 33.0114 82.1149 32.8459 81.8253 32.4826C81.5724 32.1148 81.4391 31.5815 81.4391 30.8642V18.97C81.4391 17.701 81.1126 16.6528 80.4552 15.8344C80.023 15.3194 79.3471 14.9378 78.4414 14.6803C77.5586 14.3953 76.4138 14.2574 75.0115 14.2574C73.6092 14.2574 72.2667 14.7539 71.0759 15.7378C70.1241 16.5056 69.4069 17.324 68.9333 18.2022V14.4137H65.9632V33.724H68.9333V20.078C68.9333 19.1309 69.5402 18.0275 70.823 16.7677C72.092 15.4987 73.508 14.8734 75.0851 14.8734C75.8529 14.8734 76.4874 14.9976 76.9931 15.2367C77.9494 15.7516 78.469 16.9516 78.469 18.9378V30.8734V30.8826L78.5057 31.5263L79.3977 33.0022L79.4023 32.993ZM63.5724 8.69873L63.7149 8.7539L63.7701 8.61138L63.9218 8.22977L63.9816 8.07804L63.8253 8.02747C61.2276 7.1631 58.6621 6.72632 56.1379 6.72632C53.6138 6.72632 51.7287 7.31482 50.446 8.51482C49.1678 9.68724 48.5333 11.2229 48.5333 13.1125C48.5333 15.4941 49.5218 17.3424 51.4897 18.639C52.3586 19.2275 53.3149 19.7608 54.3586 20.2482C55.3977 20.7079 56.423 21.1493 57.4391 21.5815C58.4736 22.0091 59.4161 22.478 60.2713 22.9792C62.1563 24.0964 63.0851 25.6321 63.0851 27.5953C63.0851 29.3976 62.3724 30.7493 60.9517 31.6826C59.5356 32.6022 57.8207 33.062 55.7931 33.062C54.4138 33.062 53.0621 32.8642 51.7333 32.4597C50.4276 32.0321 49.3701 31.4941 48.5517 30.8505L48.4184 30.7447L48.3264 30.8918L48.1379 31.1953L48.0598 31.3194L48.1793 31.4022C50.4138 32.97 53.108 33.747 56.2483 33.747C57.931 33.747 59.4069 33.5539 60.6667 33.1723C61.9632 32.7585 63.0667 31.9769 63.9724 30.8413C64.8828 29.6964 65.3379 28.3171 65.3379 26.7171C65.3379 25.1171 65.0713 23.7746 64.5241 22.7309C63.9816 21.6734 63.269 20.8413 62.3816 20.2436C61.5126 19.6551 60.5517 19.1309 59.508 18.6711C58.4644 18.2114 57.4253 17.8068 56.3816 17.4528C55.3747 17.0757 54.4414 16.6711 53.5862 16.2436C51.7012 15.2505 50.7816 13.8665 50.7816 12.0872C50.7816 10.6114 51.3333 9.46655 52.4322 8.63896C53.5356 7.80678 55.0805 7.37919 57.0897 7.37919C59.0988 7.37919 61.2782 7.81597 63.5724 8.69873ZM85.1816 16.9194C83.4207 18.7033 82.5517 21.2045 82.5517 24.3999C82.5517 27.5953 83.3931 29.9861 85.1126 31.5447C86.8184 33.0941 89.0253 33.8665 91.7149 33.8665C94.4046 33.8665 96.6805 32.9792 98.4368 31.1999C100.221 29.416 101.103 26.9148 101.103 23.7194C101.103 20.524 100.262 18.1332 98.5425 16.5746C96.8368 15.0252 94.6161 14.2528 91.8989 14.2528C89.1816 14.2528 86.9563 15.1401 85.177 16.9194H85.1816ZM87.3149 17.3884C88.5563 15.701 90.1058 14.8643 91.977 14.8643C93.8483 14.8643 95.3563 15.5769 96.492 17.0114C97.6276 18.4413 98.2069 20.6665 98.2069 23.7194C98.2069 26.7723 97.577 29.0849 96.3356 30.7723C95.0943 32.4367 93.5448 33.2551 91.669 33.2551C89.7931 33.2551 88.2897 32.5424 87.154 31.1079C86.0184 29.678 85.4391 27.4665 85.4391 24.4413C85.4391 21.416 86.069 19.0482 87.3103 17.3884H87.3149ZM126.998 14.6757L126.883 14.7907L126.998 14.901C127.361 15.2413 127.559 15.7516 127.559 16.4597C127.559 17.1677 127.411 17.7792 127.122 18.2849V18.2987L121.766 29.8941L116.078 14.5102L116.041 14.4091H113.053L113.131 14.616L114.515 18.3953L109.223 29.8941L103.54 14.5102L103.503 14.4091H100.51L100.589 14.616L107.66 33.6183L107.697 33.7194H108.285L108.326 33.6275L114.86 19.2597L120.202 33.6137L120.239 33.7148H120.828L120.869 33.6229L127.789 18.4229C128.101 17.6918 128.257 16.9746 128.257 16.2665C128.257 16.078 128.23 15.8757 128.179 15.6688C128.147 15.4344 128.032 15.1861 127.853 14.9286C127.775 14.7999 127.701 14.6941 127.632 14.6114C127.563 14.5286 127.49 14.4597 127.411 14.4183L127.31 14.3677L127.232 14.4459L127.002 14.6757H126.998Z" fill="#80818B"/>
<path d="M134.138 7.23212C134.851 6.13786 136.009 5.29189 137.614 5.21832L137.278 31.1264C137.278 31.3608 137.352 31.6137 137.485 31.8804C138.11 33.131 139.6 33.7149 141.844 33.7149H143.177V33.1034H141.857L141.453 33.0298H141.444H141.434C141.195 33.0114 140.924 32.8459 140.634 32.4827C140.382 32.1149 140.248 31.5815 140.248 30.8643V4.94246H140.097L137.775 4.90108H137.618C135.016 4.94706 133.094 5.55855 131.885 6.76775C130.648 7.97694 130.051 9.99074 130.051 12.7677V14.3999H129.251V15.3241H130.051V33.7103H133.021V15.3287H136.023V14.4045H133.021V12.7723C133.021 10.17 133.402 8.33556 134.133 7.23212H134.138ZM154.377 24.2712C153.857 24.2298 153.287 24.2068 152.671 24.2068C151.982 24.2068 151.232 24.2436 150.418 24.3218C148.782 24.4229 147.425 24.616 146.354 24.8965C145.287 25.1769 144.487 25.554 143.977 26.0367C143.485 26.5011 143.172 26.9425 143.057 27.3655C142.952 27.7563 142.901 28.1241 142.901 28.4689C142.901 28.7815 142.929 29.0942 142.979 29.4068C143.2 30.8781 143.775 31.9999 144.717 32.754C145.66 33.5034 146.947 33.8712 148.566 33.8712C149.954 33.8712 151.163 33.5861 152.189 33.0068C153.062 32.5103 153.793 31.8068 154.382 30.8965V31.131C154.382 31.6045 154.717 32.1241 155.301 32.685C155.982 33.3884 157.214 33.7195 158.947 33.7195H160.28V33.108H158.961L158.556 33.0344H158.547H158.538C158.299 33.016 158.028 32.8505 157.738 32.4873C157.485 32.1195 157.352 31.5861 157.352 30.8689V18.1379C157.352 17.2827 157.002 16.4735 156.326 15.7149C155.88 15.2183 155.209 14.8551 154.331 14.616C153.453 14.3769 152.354 14.2574 151.039 14.2574C148.685 14.2574 146.368 14.7815 144.097 15.8298L143.945 15.8988L144.028 16.0459L144.179 16.3126L144.257 16.4459L144.391 16.3677C144.956 16.0505 145.853 15.7241 147.09 15.393C148.349 15.039 149.434 14.8643 150.354 14.8643C151.274 14.8643 152.018 14.9884 152.57 15.2321H152.575C153.145 15.4528 153.517 15.7195 153.72 16.0137C153.94 16.331 154.11 16.662 154.234 17.0022V17.016C154.382 17.3287 154.414 17.5723 154.377 17.7517C154.349 17.8574 154.336 17.9494 154.336 18.0229C154.336 18.0597 154.336 18.1057 154.354 18.1471C154.359 18.1609 154.363 18.1746 154.372 18.1884V24.2712H154.377ZM145.945 29.3654C145.922 29.1126 145.908 28.8919 145.908 28.6942C145.908 27.6045 146.193 26.7723 146.74 26.1746C147.007 25.885 147.439 25.6275 148.055 25.416C148.667 25.2045 149.453 25.0436 150.409 24.9287C151.09 24.8551 151.766 24.8137 152.446 24.8137C153.126 24.8137 153.747 24.8367 154.382 24.8781V29.3241C154.308 30.1241 153.761 30.9884 152.69 31.9126C151.651 32.7999 150.483 33.2413 149.182 33.2413C148.207 33.2413 147.462 32.9195 146.933 32.2896C146.4 31.6505 146.064 30.6804 145.954 29.3563L145.945 29.3654ZM163.503 5.05281V4.89648H160.533V33.7103H163.503V24.4551L164.359 23.4712L171.278 33.6413L171.324 33.7103H174.359L174.193 33.4666L166.092 21.5586L172.207 14.6574L172.437 14.3999H171.641L171.595 14.4505L163.503 23.5723V5.0574V5.05281ZM188.975 32.2022L188.915 32.0643L188.777 32.1195C186.823 32.8735 184.589 33.2505 182.069 33.2505C180.322 33.2505 178.91 32.5379 177.821 31.108C176.763 29.6781 176.216 27.4114 176.216 24.285C176.216 23.6045 176.248 22.9471 176.313 22.3126H189.894V22.1563V22.1471V22.1379V22.1287V22.1195V22.1103V22.1011V22.0919V22.0827V22.0735V22.0643V22.0551V22.0459V22.0367V22.0275V22.0183V22.0091V21.9999V21.9907V21.9815V21.9723V21.9632V21.954V21.9448V21.9356V21.9264V21.9172V21.908V21.8988V21.8896V21.8804V21.8712V21.862V21.8528V21.8436V21.8344V21.8252V21.816V21.8068V21.7976V21.7884V21.7792V21.77V21.7609V21.7517V21.7425V21.7333V21.7241V21.7149V21.7057V21.6965V21.6873C189.894 19.2229 189.172 17.3379 187.715 16.0597C186.267 14.7907 184.478 14.1609 182.368 14.1609C179.743 14.1609 177.572 15.0482 175.871 16.8321C174.166 18.616 173.32 21.1172 173.32 24.3126C173.32 27.508 174.124 29.8942 175.761 31.4574C177.389 33.0114 179.494 33.7792 182.064 33.7792C184.634 33.7792 186.952 33.3838 188.998 32.593L189.149 32.5333L189.085 32.3861L188.97 32.1195L188.975 32.2022ZM185.632 16.5471C186.497 17.6505 186.961 19.3563 187.002 21.6919H176.391C176.703 19.5677 177.398 17.908 178.455 16.7034C179.572 15.462 180.823 14.8551 182.216 14.8551C183.609 14.8551 184.745 15.416 185.628 16.5425L185.632 16.5471Z" fill="#80818B"/>
<path d="M193.251 4.65698V5.65928H192.11V8.71216H191.025V5.65928H189.885V4.65698H193.251Z" fill="#80818B"/>
<path d="M197.701 4.59741V8.73534H196.616V6.72615L195.821 7.66868H195.499L194.704 6.72615V8.73534H193.618V4.59741H194L195.655 6.36293L197.315 4.59741H197.697H197.701Z" fill="#80818B"/>
<path fill-rule="evenodd" clip-rule="evenodd" d="M18.6115 26.9517L18.5931 40H21.3517L21.3701 26.892L26.4046 38.9977L28.9517 37.9402L23.954 25.9172L33.1494 35.1356L35.1034 33.1862L25.8713 23.9264L37.9494 28.9379L39.0069 26.3908L26.9287 21.3793H40.0046V18.6207H26.9563L39.0161 13.6414L37.9632 11.0897L25.954 16.0506L35.1862 6.91034L33.246 4.95172L23.8988 14.2023L28.9333 2.05517L26.3862 0.997701L21.3885 13.0529L21.4069 0H18.6483L18.6299 13.108L13.5954 1.0023L11.0483 2.05977L16.046 14.0828L6.85057 4.86897L4.89655 6.81839L14.1333 16.0782L2.05517 11.0621L0.997701 13.6092L13.0759 18.6207H0V21.3793H13.0483L0.988506 26.3632L2.04138 28.9149L14.046 23.954L4.81379 33.0943L6.75402 35.0529L16.1011 25.8023L11.0621 37.9494L13.6092 39.0069L18.6069 26.9517H18.6115Z" fill="#80818B"/>
</svg>
